<?xml version="1.0" encoding="UTF-8" standalone="no"?>
<!-- Created with Inkscape (http://www.inkscape.org/) -->

<svg
   xmlns:dc="http://purl.org/dc/elements/1.1/"
   xmlns:cc="http://creativecommons.org/ns#"
   xmlns:rdf="http://www.w3.org/1999/02/22-rdf-syntax-ns#"
   xmlns:svg="http://www.w3.org/2000/svg"
   xmlns="http://www.w3.org/2000/svg"
   xmlns:sodipodi="http://sodipodi.sourceforge.net/DTD/sodipodi-0.dtd"
   xmlns:inkscape="http://www.inkscape.org/namespaces/inkscape"
   width="512"
   height="512"
   viewBox="0 0 135.46666 135.46667"
   version="1.1"
   id="svg8"
   inkscape:version="0.92.5 (2060ec1f9f, 2020-04-08)"
   sodipodi:docname="icona-youtube.svg">
  <defs
     id="defs2" />
  <sodipodi:namedview
     id="base"
     pagecolor="#00e12b"
     bordercolor="#666666"
     borderopacity="1.0"
     inkscape:pageopacity="1"
     inkscape:pageshadow="2"
     inkscape:zoom="0.5"
     inkscape:cx="256"
     inkscape:cy="256"
     inkscape:document-units="mm"
     inkscape:current-layer="layer1"
     showgrid="false"
     units="px"
     inkscape:window-width="1916"
     inkscape:window-height="1041"
     inkscape:window-x="0"
     inkscape:window-y="18"
     inkscape:window-maximized="0" />
  <metadata
     id="metadata5">
    <rdf:RDF>
      <cc:Work
         rdf:about="">
        <dc:format>image/svg+xml</dc:format>
        <dc:type
           rdf:resource="http://purl.org/dc/dcmitype/StillImage" />
        <dc:title></dc:title>
      </cc:Work>
    </rdf:RDF>
  </metadata>
  <g
     inkscape:label="Capa 1"
     inkscape:groupmode="layer"
     id="layer1"
     transform="translate(0,-161.53332)">
    <rect
       style="opacity:1;fill:#00e12b;fill-opacity:1;stroke:none;stroke-width:1.65495682;stroke-linecap:round;stroke-linejoin:round;stroke-miterlimit:4;stroke-dasharray:none;stroke-dashoffset:0;stroke-opacity:1;paint-order:markers stroke fill"
       id="rect1340"
       width="133.81171"
       height="133.81171"
       x="0.82748008"
       y="162.36079" />
    <g
       id="g1968"
       transform="matrix(0.25283784,0,0,0.25283784,21.43125,182.96446)"
       style="fill:#ffffff">
      <path
         id="path1913"
         d="M 351.479,71.073 C 349.432,63.24 342.865,57.414 334.845,56.315 284.512,49.416 233.461,45.918 183.108,45.918 c -50.352,0 -101.392,3.498 -151.697,10.398 -8.02,1.1 -14.586,6.926 -16.633,14.758 -19.704,75.403 -19.704,148.711 0,224.113 2.047,7.832 8.614,13.659 16.635,14.758 50.339,6.899 101.394,10.397 151.745,10.397 50.353,0 101.389,-3.498 151.688,-10.398 8.02,-1.1 14.585,-6.925 16.632,-14.756 19.708,-75.394 19.708,-148.702 10e-4,-224.115 z m -104.314,126.188 -74.357,57.131 c -3.172,2.439 -7.006,3.689 -10.86,3.689 -2.681,0 -5.374,-0.604 -7.875,-1.835 -6.089,-3 -9.942,-9.198 -9.942,-15.986 V 125.999 c 0,-6.789 3.854,-12.987 9.942,-15.986 6.091,-3 13.352,-2.281 18.735,1.854 l 74.357,57.13 c 4.393,3.373 6.966,8.596 6.966,14.132 -0.001,5.536 -2.574,10.759 -6.966,14.132 z"
         inkscape:connector-curvature="0"
         style="fill:#ffffff" />
      <g
         id="g1915"
         style="fill:#ffffff">
</g>
      <g
         id="g1917"
         style="fill:#ffffff">
</g>
      <g
         id="g1919"
         style="fill:#ffffff">
</g>
      <g
         id="g1921"
         style="fill:#ffffff">
</g>
      <g
         id="g1923"
         style="fill:#ffffff">
</g>
      <g
         id="g1925"
         style="fill:#ffffff">
</g>
      <g
         id="g1927"
         style="fill:#ffffff">
</g>
      <g
         id="g1929"
         style="fill:#ffffff">
</g>
      <g
         id="g1931"
         style="fill:#ffffff">
</g>
      <g
         id="g1933"
         style="fill:#ffffff">
</g>
      <g
         id="g1935"
         style="fill:#ffffff">
</g>
      <g
         id="g1937"
         style="fill:#ffffff">
</g>
      <g
         id="g1939"
         style="fill:#ffffff">
</g>
      <g
         id="g1941"
         style="fill:#ffffff">
</g>
      <g
         id="g1943"
         style="fill:#ffffff">
</g>
    </g>
  </g>
</svg>
