<?xml version="1.0" encoding="UTF-8" standalone="no"?>
<!-- Created with Inkscape (http://www.inkscape.org/) -->

<svg
   xmlns:dc="http://purl.org/dc/elements/1.1/"
   xmlns:cc="http://creativecommons.org/ns#"
   xmlns:rdf="http://www.w3.org/1999/02/22-rdf-syntax-ns#"
   xmlns:svg="http://www.w3.org/2000/svg"
   xmlns="http://www.w3.org/2000/svg"
   xmlns:sodipodi="http://sodipodi.sourceforge.net/DTD/sodipodi-0.dtd"
   xmlns:inkscape="http://www.inkscape.org/namespaces/inkscape"
   width="512"
   height="512"
   viewBox="0 0 135.46666 135.46667"
   version="1.1"
   id="svg8"
   inkscape:version="0.92.5 (2060ec1f9f, 2020-04-08)"
   sodipodi:docname="icona-twitter.svg">
  <defs
     id="defs2" />
  <sodipodi:namedview
     id="base"
     pagecolor="#00e12b"
     bordercolor="#666666"
     borderopacity="1.0"
     inkscape:pageopacity="1"
     inkscape:pageshadow="2"
     inkscape:zoom="0.5"
     inkscape:cx="256"
     inkscape:cy="256"
     inkscape:document-units="mm"
     inkscape:current-layer="layer1"
     showgrid="false"
     units="px"
     inkscape:window-width="1916"
     inkscape:window-height="1041"
     inkscape:window-x="0"
     inkscape:window-y="18"
     inkscape:window-maximized="0" />
  <metadata
     id="metadata5">
    <rdf:RDF>
      <cc:Work
         rdf:about="">
        <dc:format>image/svg+xml</dc:format>
        <dc:type
           rdf:resource="http://purl.org/dc/dcmitype/StillImage" />
        <dc:title></dc:title>
      </cc:Work>
    </rdf:RDF>
  </metadata>
  <g
     inkscape:label="Capa 1"
     inkscape:groupmode="layer"
     id="layer1"
     transform="translate(0,-161.53332)">
    <rect
       style="opacity:1;fill:#00e12b;fill-opacity:1;stroke:none;stroke-width:1.65495682;stroke-linecap:round;stroke-linejoin:round;stroke-miterlimit:4;stroke-dasharray:none;stroke-dashoffset:0;stroke-opacity:1;paint-order:markers stroke fill"
       id="rect1340"
       width="133.81171"
       height="133.81171"
       x="0.82748008"
       y="162.36079" />
    <g
       id="g1815"
       transform="matrix(0.29872214,0,0,0.29872214,21.431911,182.96472)"
       style="fill:#ffffff">
      <g
         id="XMLID_826_"
         style="fill:#ffffff">
	<path
   d="m 302.973,57.388 c -4.87,2.16 -9.877,3.983 -14.993,5.463 6.057,-6.85 10.675,-14.91 13.494,-23.73 0.632,-1.977 -0.023,-4.141 -1.648,-5.434 -1.623,-1.294 -3.878,-1.449 -5.665,-0.39 -10.865,6.444 -22.587,11.075 -34.878,13.783 -12.381,-12.098 -29.197,-18.983 -46.581,-18.983 -36.695,0 -66.549,29.853 -66.549,66.547 0,2.89 0.183,5.764 0.545,8.598 C 101.163,99.244 58.83,76.863 29.76,41.204 c -1.036,-1.271 -2.632,-1.956 -4.266,-1.825 -1.635,0.128 -3.104,1.05 -3.93,2.467 -5.896,10.117 -9.013,21.688 -9.013,33.461 0,16.035 5.725,31.249 15.838,43.137 -3.075,-1.065 -6.059,-2.396 -8.907,-3.977 -1.529,-0.851 -3.395,-0.838 -4.914,0.033 -1.52,0.871 -2.473,2.473 -2.513,4.224 -0.007,0.295 -0.007,0.59 -0.007,0.889 0,23.935 12.882,45.484 32.577,57.229 -1.692,-0.169 -3.383,-0.414 -5.063,-0.735 -1.732,-0.331 -3.513,0.276 -4.681,1.597 -1.17,1.32 -1.557,3.16 -1.018,4.84 7.29,22.76 26.059,39.501 48.749,44.605 -18.819,11.787 -40.34,17.961 -62.932,17.961 -4.714,0 -9.455,-0.277 -14.095,-0.826 -2.305,-0.274 -4.509,1.087 -5.294,3.279 -0.785,2.193 0.047,4.638 2.008,5.895 29.023,18.609 62.582,28.445 97.047,28.445 67.754,0 110.139,-31.95 133.764,-58.753 29.46,-33.421 46.356,-77.658 46.356,-121.367 0,-1.826 -0.028,-3.67 -0.084,-5.508 11.623,-8.757 21.63,-19.355 29.773,-31.536 1.237,-1.85 1.103,-4.295 -0.33,-5.998 -1.431,-1.704 -3.816,-2.255 -5.852,-1.353 z"
   id="XMLID_827_"
   inkscape:connector-curvature="0"
   style="fill:#ffffff" />

</g>
      <g
         id="g1761"
         style="fill:#ffffff">
</g>
      <g
         id="g1763"
         style="fill:#ffffff">
</g>
      <g
         id="g1765"
         style="fill:#ffffff">
</g>
      <g
         id="g1767"
         style="fill:#ffffff">
</g>
      <g
         id="g1769"
         style="fill:#ffffff">
</g>
      <g
         id="g1771"
         style="fill:#ffffff">
</g>
      <g
         id="g1773"
         style="fill:#ffffff">
</g>
      <g
         id="g1775"
         style="fill:#ffffff">
</g>
      <g
         id="g1777"
         style="fill:#ffffff">
</g>
      <g
         id="g1779"
         style="fill:#ffffff">
</g>
      <g
         id="g1781"
         style="fill:#ffffff">
</g>
      <g
         id="g1783"
         style="fill:#ffffff">
</g>
      <g
         id="g1785"
         style="fill:#ffffff">
</g>
      <g
         id="g1787"
         style="fill:#ffffff">
</g>
      <g
         id="g1789"
         style="fill:#ffffff">
</g>
    </g>
  </g>
</svg>
