<?xml version="1.0" encoding="UTF-8" standalone="no"?>
<!-- Generator: Adobe Illustrator 19.0.0, SVG Export Plug-In . SVG Version: 6.00 Build 0)  -->

<svg
   xmlns:dc="http://purl.org/dc/elements/1.1/"
   xmlns:cc="http://creativecommons.org/ns#"
   xmlns:rdf="http://www.w3.org/1999/02/22-rdf-syntax-ns#"
   xmlns:svg="http://www.w3.org/2000/svg"
   xmlns="http://www.w3.org/2000/svg"
   xmlns:sodipodi="http://sodipodi.sourceforge.net/DTD/sodipodi-0.dtd"
   xmlns:inkscape="http://www.inkscape.org/namespaces/inkscape"
   version="1.1"
   id="Capa_1"
   x="0px"
   y="0px"
   viewBox="0 0 56.966 56.966"
   style="enable-background:new 0 0 56.966 56.966;"
   xml:space="preserve"
   sodipodi:docname="iconabuscar-blanc.svg"
   inkscape:version="0.92.5 (2060ec1f9f, 2020-04-08)"><metadata
   id="metadata22210"><rdf:RDF><cc:Work
       rdf:about=""><dc:format>image/svg+xml</dc:format><dc:type
         rdf:resource="http://purl.org/dc/dcmitype/StillImage" /><dc:title></dc:title></cc:Work></rdf:RDF></metadata><defs
   id="defs22208" /><sodipodi:namedview
   pagecolor="#ffffff"
   bordercolor="#666666"
   borderopacity="1"
   objecttolerance="10"
   gridtolerance="10"
   guidetolerance="10"
   inkscape:pageopacity="0"
   inkscape:pageshadow="2"
   inkscape:window-width="1916"
   inkscape:window-height="1005"
   id="namedview22206"
   showgrid="false"
   inkscape:zoom="4.1428221"
   inkscape:cx="-60.466029"
   inkscape:cy="28.483"
   inkscape:window-x="0"
   inkscape:window-y="54"
   inkscape:window-maximized="0"
   inkscape:current-layer="Capa_1" />
<path
   d="M55.146,51.887L41.588,37.786c3.486-4.144,5.396-9.358,5.396-14.786c0-12.682-10.318-23-23-23s-23,10.318-23,23  s10.318,23,23,23c4.761,0,9.298-1.436,13.177-4.162l13.661,14.208c0.571,0.593,1.339,0.92,2.162,0.92  c0.779,0,1.518-0.297,2.079-0.837C56.255,54.982,56.293,53.08,55.146,51.887z M23.984,6c9.374,0,17,7.626,17,17s-7.626,17-17,17  s-17-7.626-17-17S14.61,6,23.984,6z"
   id="path22173"
   style="fill:#ffffff" />
<g
   id="g22175">
</g>
<g
   id="g22177">
</g>
<g
   id="g22179">
</g>
<g
   id="g22181">
</g>
<g
   id="g22183">
</g>
<g
   id="g22185">
</g>
<g
   id="g22187">
</g>
<g
   id="g22189">
</g>
<g
   id="g22191">
</g>
<g
   id="g22193">
</g>
<g
   id="g22195">
</g>
<g
   id="g22197">
</g>
<g
   id="g22199">
</g>
<g
   id="g22201">
</g>
<g
   id="g22203">
</g>
</svg>