<?xml version="1.0" encoding="UTF-8" standalone="no"?>
<!-- Created with Inkscape (http://www.inkscape.org/) -->

<svg
   xmlns:dc="http://purl.org/dc/elements/1.1/"
   xmlns:cc="http://creativecommons.org/ns#"
   xmlns:rdf="http://www.w3.org/1999/02/22-rdf-syntax-ns#"
   xmlns:svg="http://www.w3.org/2000/svg"
   xmlns="http://www.w3.org/2000/svg"
   xmlns:sodipodi="http://sodipodi.sourceforge.net/DTD/sodipodi-0.dtd"
   xmlns:inkscape="http://www.inkscape.org/namespaces/inkscape"
   width="512"
   height="512"
   viewBox="0 0 135.46666 135.46667"
   version="1.1"
   id="svg8"
   inkscape:version="0.92.5 (2060ec1f9f, 2020-04-08)"
   sodipodi:docname="icona-instagram.svg">
  <defs
     id="defs2" />
  <sodipodi:namedview
     id="base"
     pagecolor="#00e12b"
     bordercolor="#666666"
     borderopacity="1.0"
     inkscape:pageopacity="1"
     inkscape:pageshadow="2"
     inkscape:zoom="0.5"
     inkscape:cx="256"
     inkscape:cy="256"
     inkscape:document-units="mm"
     inkscape:current-layer="layer1"
     showgrid="false"
     units="px"
     inkscape:window-width="1916"
     inkscape:window-height="1041"
     inkscape:window-x="0"
     inkscape:window-y="18"
     inkscape:window-maximized="0" />
  <metadata
     id="metadata5">
    <rdf:RDF>
      <cc:Work
         rdf:about="">
        <dc:format>image/svg+xml</dc:format>
        <dc:type
           rdf:resource="http://purl.org/dc/dcmitype/StillImage" />
        <dc:title></dc:title>
      </cc:Work>
    </rdf:RDF>
  </metadata>
  <g
     inkscape:label="Capa 1"
     inkscape:groupmode="layer"
     id="layer1"
     transform="translate(0,-161.53332)">
    <rect
       style="opacity:1;fill:#00e12b;fill-opacity:1;stroke:none;stroke-width:1.65495682;stroke-linecap:round;stroke-linejoin:round;stroke-miterlimit:4;stroke-dasharray:none;stroke-dashoffset:0;stroke-opacity:1;paint-order:markers stroke fill"
       id="rect1340"
       width="133.81171"
       height="133.81171"
       x="0.82748008"
       y="162.36079" />
    <path
       id="path1652"
       d="m 67.733628,191.31047 c 12.3627,0 13.82906,0.0437 18.71394,0.2698 12.54791,0.57167 18.409162,6.52479 18.980102,18.98009 0.22458,4.88109 0.26688,6.34731 0.26688,18.71001 0,12.36664 -0.0437,13.82907 -0.26688,18.71016 -0.57459,12.44378 -6.420522,18.40915 -18.980102,18.98024 -4.88488,0.22459 -6.34352,0.26979 -18.71394,0.26979 -12.36285,0 -13.82907,-0.0437 -18.71002,-0.26979 -12.57897,-0.57459 -18.40915,-6.55556 -18.98024,-18.98418 -0.22312,-4.8808 -0.26979,-6.34323 -0.26979,-18.71001 0,-12.36285 0.0438,-13.82513 0.26979,-18.71001 0.57459,-12.45151 6.42067,-18.40901 18.98024,-18.98024 4.88488,-0.22021 6.34717,-0.26688 18.71002,-0.26688 z m 0,-8.34597 c -12.57504,0 -14.14933,0.0583 -19.08816,0.27708 -16.81562,0.77147 -26.161,10.10168 -26.93276,26.93261 -0.2275,4.94351 -0.28146,6.51779 -0.28146,19.09283 0,12.57503 0.0583,14.15311 0.27709,19.0921 0.77146,16.81547 10.10167,26.16085 26.9326,26.9326 4.94278,0.22313 6.51707,0.27709 19.0921,0.27709 12.57504,0 14.15311,-0.0583 19.0921,-0.27709 16.800012,-0.77146 26.168582,-10.10167 26.928822,-26.9326 0.2275,-4.93899 0.28146,-6.51707 0.28146,-19.0921 0,-12.57504 -0.0583,-14.14932 -0.27709,-19.08816 -0.75688,-16.80016 -10.09774,-26.161 -26.928822,-26.93276 -4.94277,-0.2275 -6.52085,-0.28146 -19.09588,-0.28146 z m 0,22.52621 c -13.13067,0 -23.77631,10.64564 -23.77631,23.77631 0,13.13066 10.64564,23.78024 23.77631,23.78024 13.13066,0 23.7763,-10.64578 23.7763,-23.78024 0,-13.13067 -10.64564,-23.77631 -23.7763,-23.77631 z m 0,39.21043 c -8.52346,0 -15.43413,-6.90673 -15.43413,-15.43412 0,-8.52346 6.91067,-15.43413 15.43413,-15.43413 8.52345,0 15.43412,6.91067 15.43412,15.43413 0,8.52739 -6.91067,15.43412 -15.43412,15.43412 z m 24.71781,-45.70445 c -3.07142,0 -5.56009,2.48882 -5.56009,5.5563 0,3.06764 2.48867,5.55631 5.56009,5.55631 3.06749,0 5.55251,-2.48867 5.55251,-5.55631 0,-3.06748 -2.48502,-5.5563 -5.55251,-5.5563 z"
       inkscape:connector-curvature="0"
       style="fill:#ffffff;stroke-width:3.85854316" />
  </g>
</svg>
