<?xml version="1.0" encoding="UTF-8" standalone="no"?>
<!-- Created with Inkscape (http://www.inkscape.org/) -->

<svg
   xmlns:dc="http://purl.org/dc/elements/1.1/"
   xmlns:cc="http://creativecommons.org/ns#"
   xmlns:rdf="http://www.w3.org/1999/02/22-rdf-syntax-ns#"
   xmlns:svg="http://www.w3.org/2000/svg"
   xmlns="http://www.w3.org/2000/svg"
   xmlns:sodipodi="http://sodipodi.sourceforge.net/DTD/sodipodi-0.dtd"
   xmlns:inkscape="http://www.inkscape.org/namespaces/inkscape"
   width="64.140289mm"
   height="26.161205mm"
   viewBox="0 0 64.140289 26.161205"
   version="1.1"
   id="svg3435"
   inkscape:version="0.92.3 (2405546, 2018-03-11)"
   sodipodi:docname="logo_kea_blanc.svg">
  <defs
     id="defs3429" />
  <sodipodi:namedview
     id="base"
     pagecolor="#ffffff"
     bordercolor="#666666"
     borderopacity="1.0"
     inkscape:pageopacity="0.0"
     inkscape:pageshadow="2"
     inkscape:zoom="0.35"
     inkscape:cx="-51.647146"
     inkscape:cy="-21.990073"
     inkscape:document-units="mm"
     inkscape:current-layer="layer1"
     showgrid="false"
     fit-margin-top="0"
     fit-margin-left="0"
     fit-margin-right="0"
     fit-margin-bottom="0"
     inkscape:window-width="1920"
     inkscape:window-height="1014"
     inkscape:window-x="0"
     inkscape:window-y="34"
     inkscape:window-maximized="1" />
  <metadata
     id="metadata3432">
    <rdf:RDF>
      <cc:Work
         rdf:about="">
        <dc:format>image/svg+xml</dc:format>
        <dc:type
           rdf:resource="http://purl.org/dc/dcmitype/StillImage" />
        <dc:title></dc:title>
      </cc:Work>
    </rdf:RDF>
  </metadata>
  <g
     inkscape:label="Tavolo 1"
     inkscape:groupmode="layer"
     id="layer1"
     transform="translate(43.409431,-116.85392)">
    <g
       transform="matrix(0.26458333,0,0,0.26458333,34.452178,59.408453)"
       id="g3349"
       style="fill:#ffffff">
      <g
         transform="translate(-380.3661,-53.779269)"
         id="g2721"
         style="fill:#ffffff">
        <path
           d="m 96.137,298.292 v -24.125 h 17.184 v 3.981 h -12.794 v 5.614 h 11.263 v 3.947 h -11.263 v 6.602 h 12.794 v 3.981 z"
           id="path2695"
           inkscape:connector-curvature="0"
           style="fill:#ffffff" />
        <path
           d="m 132.688,296.148 c -1.837,1.837 -4.662,2.586 -7.622,2.586 -2.552,0 -5.24,-0.681 -7.213,-2.484 -1.429,-1.293 -2.518,-3.335 -2.518,-5.615 h 4.491 c 0,1.191 0.544,2.246 1.259,2.96 1.021,1.021 2.654,1.293 4.049,1.293 1.667,0 3.267,-0.34 4.185,-1.293 0.544,-0.579 0.953,-1.157 0.953,-2.314 0,-1.769 -1.361,-2.586 -2.858,-2.858 -1.633,-0.307 -3.743,-0.375 -5.342,-0.646 -3.335,-0.544 -6.125,-2.722 -6.125,-6.738 0,-1.905 0.851,-3.504 2.11,-4.764 1.599,-1.565 4.253,-2.552 7.078,-2.552 2.586,0 5.104,0.816 6.737,2.348 1.429,1.361 2.416,3.13 2.45,5.138 h -4.491 c -0.034,-0.851 -0.477,-1.77 -1.055,-2.382 -0.783,-0.817 -2.382,-1.293 -3.675,-1.293 -1.361,0 -2.926,0.306 -3.913,1.327 -0.51,0.544 -0.817,1.157 -0.817,2.042 0,1.565 1.021,2.382 2.45,2.62 1.531,0.238 3.675,0.408 5.24,0.612 3.607,0.51 6.635,2.858 6.635,6.976 -0.001,2.246 -0.818,3.846 -2.008,5.037 z"
           id="path2697"
           inkscape:connector-curvature="0"
           style="fill:#ffffff" />
        <path
           d="m 147.59,289.648 h -5.104 v 8.643 h -4.355 v -24.125 h 9.459 c 5.546,0 8.507,3.096 8.507,7.724 0,4.628 -2.961,7.758 -8.507,7.758 z m -0.17,-11.637 h -4.934 v 7.792 h 4.934 c 2.926,0 4.253,-1.565 4.253,-3.879 0,-2.313 -1.327,-3.913 -4.253,-3.913 z"
           id="path2699"
           inkscape:connector-curvature="0"
           style="fill:#ffffff" />
        <path
           d="m 158.923,298.292 v -24.125 h 17.184 v 3.981 h -12.794 v 5.614 h 11.263 v 3.947 h -11.263 v 6.602 h 12.794 v 3.981 z"
           id="path2701"
           inkscape:connector-curvature="0"
           style="fill:#ffffff" />
        <path
           d="m 193.5,298.292 -4.016,-9.119 h -5.342 v 9.119 h -4.423 v -24.125 h 10.174 c 5.75,0 8.371,3.606 8.371,7.486 0,3.232 -1.77,5.785 -4.424,6.771 l 4.424,9.868 z m -3.607,-20.281 h -5.785 v 7.214 h 5.853 c 2.484,0 3.913,-1.293 3.913,-3.573 0,-1.939 -1.498,-3.641 -3.981,-3.641 z"
           id="path2703"
           inkscape:connector-curvature="0"
           style="fill:#ffffff" />
        <path
           d="m 217.174,298.292 -1.565,-4.627 h -9.596 l -1.565,4.627 h -4.423 l 8.473,-24.125 h 4.798 l 8.473,24.125 z m -6.362,-18.75 -3.437,10.174 h 6.874 z"
           id="path2705"
           inkscape:connector-curvature="0"
           style="fill:#ffffff" />
        <path
           d="m 239.147,298.292 -10.446,-16.571 v 16.571 h -4.321 v -24.125 h 4.662 l 10.311,16.333 v -16.333 h 4.321 v 24.125 z"
           id="path2707"
           inkscape:connector-curvature="0"
           style="fill:#ffffff" />
        <path
           d="m 257.919,278.25 v 20.042 H 253.53 V 278.25 h -7.146 v -4.083 h 18.681 v 4.083 z"
           id="path2709"
           inkscape:connector-curvature="0"
           style="fill:#ffffff" />
        <path
           d="m 283.309,296.012 c -1.838,1.837 -4.355,2.722 -6.942,2.722 -2.586,0 -5.104,-0.885 -6.941,-2.722 -2.62,-2.62 -3.062,-5.819 -3.062,-9.766 0,-3.947 0.442,-7.18 3.062,-9.8 1.838,-1.838 4.355,-2.722 6.941,-2.722 2.587,0 5.104,0.884 6.942,2.722 2.62,2.62 3.062,5.853 3.062,9.8 0.001,3.947 -0.442,7.146 -3.062,9.766 z m -3.131,-16.708 c -0.953,-1.021 -2.416,-1.599 -3.812,-1.599 -1.395,0 -2.857,0.579 -3.811,1.599 -1.667,1.735 -1.735,4.73 -1.735,6.942 0,2.211 0.068,5.172 1.735,6.907 0.953,1.021 2.416,1.6 3.811,1.6 1.396,0 2.858,-0.579 3.812,-1.6 1.667,-1.735 1.735,-4.696 1.735,-6.907 10e-4,-2.212 -0.068,-5.206 -1.735,-6.942 z"
           id="path2711"
           inkscape:connector-curvature="0"
           style="fill:#ffffff" />
        <path
           d="m 298.796,279.301 3.402,4.253 -2.96,2.211 -2.858,-4.729 -2.893,4.764 -2.96,-2.212 3.402,-4.287 -5.138,-1.361 1.123,-3.607 4.934,2.042 -0.34,-5.479 3.675,0.034 -0.375,5.478 4.968,-2.076 1.156,3.607 z"
           id="path2713"
           inkscape:connector-curvature="0"
           style="fill:#ffffff" />
        <path
           d="m 111.416,326.43 c -1.804,1.837 -4.322,2.858 -6.908,2.858 -2.586,0 -5.002,-0.851 -6.839,-2.688 -2.62,-2.62 -2.994,-5.853 -2.994,-9.8 0,-3.947 0.374,-7.18 2.994,-9.8 1.837,-1.838 4.253,-2.722 6.839,-2.722 2.586,0 5.104,0.953 6.908,2.79 1.395,1.429 2.109,3.334 2.313,5.24 h -4.491 c -0.102,-1.055 -0.477,-1.804 -1.089,-2.552 -0.783,-0.987 -2.144,-1.497 -3.641,-1.497 -1.395,0 -2.756,0.579 -3.709,1.599 -1.667,1.735 -1.667,4.73 -1.667,6.942 0,2.211 0,5.206 1.667,6.941 0.953,1.021 2.314,1.599 3.709,1.599 1.497,0 2.858,-0.544 3.641,-1.531 0.612,-0.749 0.987,-1.599 1.089,-2.654 h 4.491 c -0.204,1.907 -0.918,3.846 -2.313,5.275 z"
           id="path2715"
           inkscape:connector-curvature="0"
           style="fill:#ffffff" />
        <path
           d="m 131.459,328.846 -1.565,-4.627 h -9.596 l -1.565,4.627 h -4.423 l 8.473,-24.125 h 4.798 l 8.473,24.125 z m -6.363,-18.749 -3.437,10.174 h 6.873 z"
           id="path2717"
           inkscape:connector-curvature="0"
           style="fill:#ffffff" />
        <path
           d="m 145.344,308.804 v 20.042 h -4.389 v -20.042 h -7.146 v -4.083 h 18.681 v 4.083 z"
           id="path2719"
           inkscape:connector-curvature="0"
           style="fill:#ffffff" />
      </g>
      <g
         transform="translate(-380.3661,-53.779269)"
         id="g2831"
         style="fill:#ffffff">
        <path
           d="m 90.223,340.972 1.63,2.021 -1.05,0.752 -1.41,-2.178 -1.395,2.178 -1.05,-0.783 1.63,-1.99 -2.492,-0.643 0.408,-1.238 2.397,0.94 -0.125,-2.585 h 1.301 l -0.157,2.585 2.413,-0.94 0.392,1.238 z"
           id="path2723"
           inkscape:connector-curvature="0"
           style="fill:#ffffff" />
        <path
           d="m 102.26,348.353 -0.909,-2.633 h -4.826 l -0.894,2.633 h -1.41 l 3.917,-11.11 h 1.63 l 3.933,11.11 z m -3.338,-9.716 -1.959,5.767 h 3.934 z"
           id="path2725"
           inkscape:connector-curvature="0"
           style="fill:#ffffff" />
        <path
           d="m 110.586,347.664 c -0.611,0.627 -1.551,0.893 -2.585,0.893 -0.987,0 -1.896,-0.235 -2.57,-0.893 -0.486,-0.47 -0.768,-1.144 -0.768,-1.818 h 1.332 c 0.016,0.548 0.266,0.956 0.643,1.238 0.36,0.267 0.924,0.361 1.426,0.361 0.548,0 1.05,-0.094 1.458,-0.439 0.219,-0.172 0.392,-0.501 0.392,-0.862 0,-0.596 -0.423,-1.019 -1.238,-1.128 -0.345,-0.047 -1.238,-0.157 -1.787,-0.235 -1.191,-0.188 -1.943,-0.925 -1.943,-2.131 0,-0.611 0.298,-1.191 0.658,-1.551 0.517,-0.533 1.348,-0.878 2.335,-0.878 1.05,0 1.99,0.329 2.523,1.003 0.345,0.423 0.564,0.878 0.564,1.52 h -1.332 c -0.016,-0.407 -0.22,-0.783 -0.455,-0.987 -0.329,-0.298 -0.768,-0.423 -1.301,-0.423 -0.313,0 -0.548,0 -0.924,0.157 -0.501,0.204 -0.799,0.627 -0.799,1.065 0,0.658 0.407,0.94 1.065,1.034 0.439,0.063 1.066,0.125 1.912,0.267 1.128,0.188 2.021,1.003 2.021,2.194 0,0.688 -0.251,1.221 -0.627,1.613 z"
           id="path2727"
           inkscape:connector-curvature="0"
           style="fill:#ffffff" />
        <path
           d="m 118.768,347.664 c -0.611,0.627 -1.551,0.893 -2.585,0.893 -0.987,0 -1.896,-0.235 -2.57,-0.893 -0.486,-0.47 -0.768,-1.144 -0.768,-1.818 h 1.332 c 0.016,0.548 0.266,0.956 0.642,1.238 0.361,0.267 0.925,0.361 1.426,0.361 0.548,0 1.05,-0.094 1.458,-0.439 0.219,-0.172 0.392,-0.501 0.392,-0.862 0,-0.596 -0.423,-1.019 -1.238,-1.128 -0.345,-0.047 -1.238,-0.157 -1.787,-0.235 -1.191,-0.188 -1.943,-0.925 -1.943,-2.131 0,-0.611 0.298,-1.191 0.658,-1.551 0.517,-0.533 1.348,-0.878 2.335,-0.878 1.05,0 1.99,0.329 2.523,1.003 0.345,0.423 0.564,0.878 0.564,1.52 h -1.332 c -0.016,-0.407 -0.22,-0.783 -0.455,-0.987 -0.329,-0.298 -0.768,-0.423 -1.301,-0.423 -0.313,0 -0.548,0 -0.924,0.157 -0.501,0.204 -0.799,0.627 -0.799,1.065 0,0.658 0.407,0.94 1.065,1.034 0.439,0.063 1.066,0.125 1.912,0.267 1.128,0.188 2.021,1.003 2.021,2.194 10e-4,0.688 -0.25,1.221 -0.626,1.613 z"
           id="path2729"
           inkscape:connector-curvature="0"
           style="fill:#ffffff" />
        <path
           d="m 126.933,347.632 c -0.58,0.564 -1.395,0.924 -2.397,0.924 -1.002,0 -1.818,-0.36 -2.397,-0.924 -0.862,-0.846 -1.128,-1.99 -1.128,-3.244 0,-1.253 0.267,-2.397 1.128,-3.244 0.58,-0.564 1.395,-0.925 2.397,-0.925 1.002,0 1.818,0.36 2.397,0.925 0.862,0.846 1.128,1.99 1.128,3.244 0.001,1.254 -0.266,2.398 -1.128,3.244 z m -0.971,-5.704 c -0.329,-0.329 -0.799,-0.564 -1.426,-0.564 -0.627,0 -1.097,0.235 -1.426,0.564 -0.564,0.58 -0.737,1.536 -0.737,2.46 0,0.925 0.172,1.881 0.737,2.46 0.329,0.329 0.799,0.564 1.426,0.564 0.627,0 1.097,-0.235 1.426,-0.564 0.564,-0.58 0.736,-1.536 0.736,-2.46 0,-0.924 -0.172,-1.88 -0.736,-2.46 z"
           id="path2731"
           inkscape:connector-curvature="0"
           style="fill:#ffffff" />
        <path
           d="m 135.576,347.695 c -0.564,0.548 -1.316,0.862 -2.288,0.862 -1.426,0 -2.335,-0.658 -2.899,-1.489 -0.423,-0.626 -0.658,-1.489 -0.658,-2.68 0,-1.191 0.235,-2.053 0.658,-2.68 0.564,-0.831 1.458,-1.489 2.883,-1.489 0.94,0 1.708,0.313 2.257,0.846 0.533,0.517 0.877,1.175 0.94,2.038 h -1.348 c -0.062,-0.549 -0.266,-0.94 -0.564,-1.238 -0.313,-0.298 -0.768,-0.486 -1.285,-0.486 -0.611,0 -1.034,0.22 -1.379,0.517 -0.627,0.533 -0.799,1.52 -0.799,2.492 0,0.972 0.172,1.959 0.799,2.492 0.345,0.298 0.768,0.517 1.379,0.517 0.549,0 1.034,-0.204 1.348,-0.533 0.282,-0.298 0.47,-0.658 0.533,-1.175 h 1.348 c -0.063,0.846 -0.392,1.489 -0.925,2.006 z"
           id="path2733"
           inkscape:connector-curvature="0"
           style="fill:#ffffff" />
        <path
           d="m 138.458,338.606 v -1.567 h 1.551 v 1.567 z m 0.095,9.747 v -7.929 h 1.363 v 7.929 z"
           id="path2735"
           inkscape:connector-curvature="0"
           style="fill:#ffffff" />
        <path
           d="m 148.401,348.463 c -0.705,0 -1.144,-0.533 -1.144,-1.207 h -0.031 c -0.455,0.799 -1.441,1.301 -2.554,1.301 -1.818,0 -2.727,-1.222 -2.727,-2.444 0,-1.019 0.658,-2.351 2.82,-2.476 l 2.414,-0.141 v -0.58 c 0,-0.392 -0.047,-0.877 -0.408,-1.207 -0.266,-0.25 -0.658,-0.407 -1.3,-0.407 -0.721,0 -1.175,0.204 -1.442,0.47 -0.25,0.25 -0.392,0.564 -0.392,0.956 h -1.301 c 0.016,-0.721 0.282,-1.238 0.689,-1.661 0.533,-0.564 1.473,-0.846 2.445,-0.846 1.536,0 2.413,0.658 2.789,1.52 0.157,0.361 0.235,0.768 0.235,1.223 v 3.839 c 0,0.423 0.172,0.533 0.438,0.533 0.141,0 0.345,-0.047 0.345,-0.047 v 0.987 c -0.28,0.14 -0.547,0.187 -0.876,0.187 z m -1.222,-3.934 -2.131,0.125 c -0.799,0.047 -1.739,0.423 -1.739,1.426 0,0.706 0.438,1.364 1.567,1.364 0.611,0 1.207,-0.204 1.63,-0.643 0.47,-0.486 0.674,-1.144 0.674,-1.802 v -0.47 z"
           id="path2737"
           inkscape:connector-curvature="0"
           style="fill:#ffffff" />
        <path
           d="m 156.474,347.695 c -0.564,0.548 -1.316,0.862 -2.288,0.862 -1.426,0 -2.335,-0.658 -2.899,-1.489 -0.423,-0.626 -0.658,-1.489 -0.658,-2.68 0,-1.191 0.235,-2.053 0.658,-2.68 0.564,-0.831 1.458,-1.489 2.883,-1.489 0.94,0 1.708,0.313 2.257,0.846 0.533,0.517 0.877,1.175 0.94,2.038 h -1.348 c -0.062,-0.549 -0.266,-0.94 -0.564,-1.238 -0.313,-0.298 -0.768,-0.486 -1.285,-0.486 -0.611,0 -1.034,0.22 -1.379,0.517 -0.627,0.533 -0.799,1.52 -0.799,2.492 0,0.972 0.172,1.959 0.799,2.492 0.345,0.298 0.768,0.517 1.379,0.517 0.549,0 1.034,-0.204 1.348,-0.533 0.282,-0.298 0.47,-0.658 0.533,-1.175 h 1.348 c -0.064,0.846 -0.393,1.489 -0.925,2.006 z"
           id="path2739"
           inkscape:connector-curvature="0"
           style="fill:#ffffff" />
        <path
           d="m 159.356,338.606 v -1.567 h 1.551 v 1.567 z m 0.094,9.747 v -7.929 h 1.363 v 7.929 z"
           id="path2741"
           inkscape:connector-curvature="0"
           style="fill:#ffffff" />
        <path
           d="m 168.862,347.632 c -0.58,0.564 -1.395,0.924 -2.398,0.924 -1.003,0 -1.818,-0.36 -2.397,-0.924 -0.862,-0.846 -1.128,-1.99 -1.128,-3.244 0,-1.253 0.267,-2.397 1.128,-3.244 0.58,-0.564 1.395,-0.925 2.397,-0.925 1.002,0 1.818,0.36 2.398,0.925 0.862,0.846 1.128,1.99 1.128,3.244 0,1.254 -0.266,2.398 -1.128,3.244 z m -0.972,-5.704 c -0.329,-0.329 -0.799,-0.564 -1.426,-0.564 -0.627,0 -1.097,0.235 -1.426,0.564 -0.564,0.58 -0.737,1.536 -0.737,2.46 0,0.925 0.172,1.881 0.737,2.46 0.329,0.329 0.799,0.564 1.426,0.564 0.627,0 1.097,-0.235 1.426,-0.564 0.564,-0.58 0.736,-1.536 0.736,-2.46 0,-0.924 -0.172,-1.88 -0.736,-2.46 z m -2.601,-2.257 -0.47,-0.736 2.664,-1.928 0.705,1.113 z"
           id="path2743"
           inkscape:connector-curvature="0"
           style="fill:#ffffff" />
        <path
           d="m 182.65,347.381 c -0.674,0.674 -1.771,1.191 -2.978,1.191 -1.112,0 -2.209,-0.407 -3.009,-1.191 -1.207,-1.175 -1.395,-2.805 -1.395,-4.576 0,-1.771 0.188,-3.401 1.395,-4.576 0.799,-0.783 1.896,-1.191 3.009,-1.191 1.207,0 2.288,0.47 2.962,1.144 0.643,0.658 1.05,1.504 1.097,2.539 h -1.442 c -0.016,-0.611 -0.251,-1.144 -0.611,-1.551 -0.438,-0.486 -1.16,-0.815 -2.006,-0.815 -0.752,0 -1.489,0.298 -2.021,0.846 -0.909,0.94 -0.94,2.445 -0.94,3.604 0,1.159 0.031,2.664 0.94,3.604 0.533,0.549 1.27,0.846 2.021,0.846 0.846,0 1.583,-0.36 2.021,-0.846 0.361,-0.407 0.596,-0.987 0.611,-1.598 h 1.442 c -0.046,1.035 -0.453,1.912 -1.096,2.57 z"
           id="path2745"
           inkscape:connector-curvature="0"
           style="fill:#ffffff" />
        <path
           d="m 191.666,348.463 c -0.705,0 -1.144,-0.533 -1.144,-1.207 h -0.031 c -0.455,0.799 -1.441,1.301 -2.554,1.301 -1.818,0 -2.727,-1.222 -2.727,-2.444 0,-1.019 0.658,-2.351 2.82,-2.476 l 2.414,-0.141 v -0.58 c 0,-0.392 -0.047,-0.877 -0.408,-1.207 -0.266,-0.25 -0.658,-0.407 -1.3,-0.407 -0.721,0 -1.175,0.204 -1.442,0.47 -0.25,0.25 -0.392,0.564 -0.392,0.956 h -1.301 c 0.016,-0.721 0.282,-1.238 0.689,-1.661 0.533,-0.564 1.473,-0.846 2.445,-0.846 1.536,0 2.413,0.658 2.789,1.52 0.157,0.361 0.235,0.768 0.235,1.223 v 3.839 c 0,0.423 0.172,0.533 0.438,0.533 0.141,0 0.345,-0.047 0.345,-0.047 v 0.987 c -0.281,0.14 -0.547,0.187 -0.876,0.187 z m -1.223,-3.934 -2.131,0.125 c -0.799,0.047 -1.739,0.423 -1.739,1.426 0,0.706 0.438,1.364 1.567,1.364 0.611,0 1.207,-0.204 1.63,-0.643 0.47,-0.486 0.674,-1.144 0.674,-1.802 v -0.47 z"
           id="path2747"
           inkscape:connector-curvature="0"
           style="fill:#ffffff" />
        <path
           d="m 197.049,348.463 c -1.708,0 -2.178,-1.082 -2.178,-2.147 v -4.749 h -1.536 v -1.144 h 1.536 v -2.022 l 1.332,-0.313 v 2.335 h 2.351 v 1.144 h -2.351 v 4.592 c 0,0.768 0.329,1.081 1.065,1.081 0.564,0 1.363,-0.141 1.363,-0.141 v 1.144 c -0.36,0.094 -0.845,0.22 -1.582,0.22 z"
           id="path2749"
           inkscape:connector-curvature="0"
           style="fill:#ffffff" />
        <path
           d="m 206.478,348.463 c -0.705,0 -1.144,-0.533 -1.144,-1.207 h -0.031 c -0.455,0.799 -1.441,1.301 -2.554,1.301 -1.818,0 -2.727,-1.222 -2.727,-2.444 0,-1.019 0.658,-2.351 2.82,-2.476 l 2.414,-0.141 v -0.58 c 0,-0.392 -0.047,-0.877 -0.408,-1.207 -0.266,-0.25 -0.658,-0.407 -1.3,-0.407 -0.721,0 -1.175,0.204 -1.442,0.47 -0.25,0.25 -0.392,0.564 -0.392,0.956 h -1.301 c 0.016,-0.721 0.282,-1.238 0.689,-1.661 0.533,-0.564 1.473,-0.846 2.445,-0.846 1.536,0 2.413,0.658 2.789,1.52 0.157,0.361 0.235,0.768 0.235,1.223 v 3.839 c 0,0.423 0.172,0.533 0.438,0.533 0.141,0 0.345,-0.047 0.345,-0.047 v 0.987 c -0.281,0.14 -0.547,0.187 -0.876,0.187 z m -1.223,-3.934 -2.131,0.125 c -0.799,0.047 -1.739,0.423 -1.739,1.426 0,0.706 0.438,1.364 1.567,1.364 0.611,0 1.207,-0.204 1.63,-0.643 0.47,-0.486 0.674,-1.144 0.674,-1.802 v -0.47 z"
           id="path2751"
           inkscape:connector-curvature="0"
           style="fill:#ffffff" />
        <path
           d="m 210.85,348.447 c -1.16,0 -1.661,-0.69 -1.661,-1.943 v -9.465 h 1.332 v 9.387 c 0,0.533 0.172,0.815 0.721,0.815 0.438,0 0.548,-0.016 0.548,-0.016 v 1.128 c 0.001,0 -0.297,0.094 -0.94,0.094 z"
           id="path2753"
           inkscape:connector-curvature="0"
           style="fill:#ffffff" />
        <path
           d="m 219.644,348.463 c -0.705,0 -1.144,-0.533 -1.144,-1.207 h -0.031 c -0.455,0.799 -1.441,1.301 -2.554,1.301 -1.818,0 -2.727,-1.222 -2.727,-2.444 0,-1.019 0.658,-2.351 2.82,-2.476 l 2.414,-0.141 v -0.58 c 0,-0.392 -0.047,-0.877 -0.408,-1.207 -0.266,-0.25 -0.658,-0.407 -1.3,-0.407 -0.721,0 -1.175,0.204 -1.442,0.47 -0.25,0.25 -0.392,0.564 -0.392,0.956 h -1.301 c 0.016,-0.721 0.282,-1.238 0.689,-1.661 0.533,-0.564 1.473,-0.846 2.445,-0.846 1.536,0 2.413,0.658 2.789,1.52 0.157,0.361 0.235,0.768 0.235,1.223 v 3.839 c 0,0.423 0.172,0.533 0.438,0.533 0.141,0 0.345,-0.047 0.345,-0.047 v 0.987 c -0.281,0.14 -0.547,0.187 -0.876,0.187 z m -1.223,-3.934 -2.131,0.125 c -0.799,0.047 -1.739,0.423 -1.739,1.426 0,0.706 0.438,1.364 1.567,1.364 0.611,0 1.207,-0.204 1.63,-0.643 0.47,-0.486 0.674,-1.144 0.674,-1.802 v -0.47 z"
           id="path2755"
           inkscape:connector-curvature="0"
           style="fill:#ffffff" />
        <path
           d="m 227.513,348.353 v -5.03 c 0,-1.191 -0.486,-1.896 -1.739,-1.896 -0.768,0 -1.379,0.501 -1.724,1.222 -0.266,0.58 -0.282,1.41 -0.282,2.021 v 3.683 h -1.332 v -7.929 h 1.16 l 0.109,1.191 c 0.408,-0.909 1.504,-1.395 2.398,-1.395 1.802,0 2.742,1.082 2.742,2.915 v 5.218 z"
           id="path2757"
           inkscape:connector-curvature="0"
           style="fill:#ffffff" />
        <path
           d="m 237.25,348.463 c -0.705,0 -1.144,-0.533 -1.144,-1.207 h -0.031 c -0.455,0.799 -1.441,1.301 -2.554,1.301 -1.818,0 -2.727,-1.222 -2.727,-2.444 0,-1.019 0.658,-2.351 2.82,-2.476 l 2.414,-0.141 v -0.58 c 0,-0.392 -0.047,-0.877 -0.408,-1.207 -0.266,-0.25 -0.658,-0.407 -1.3,-0.407 -0.721,0 -1.175,0.204 -1.442,0.47 -0.25,0.25 -0.392,0.564 -0.392,0.956 h -1.301 c 0.016,-0.721 0.282,-1.238 0.689,-1.661 0.533,-0.564 1.473,-0.846 2.445,-0.846 1.536,0 2.413,0.658 2.789,1.52 0.157,0.361 0.235,0.768 0.235,1.223 v 3.839 c 0,0.423 0.172,0.533 0.438,0.533 0.141,0 0.345,-0.047 0.345,-0.047 v 0.987 c -0.28,0.14 -0.546,0.187 -0.876,0.187 z m -1.222,-3.934 -2.131,0.125 c -0.799,0.047 -1.739,0.423 -1.739,1.426 0,0.706 0.438,1.364 1.567,1.364 0.611,0 1.207,-0.204 1.63,-0.643 0.47,-0.486 0.674,-1.144 0.674,-1.802 v -0.47 z"
           id="path2759"
           inkscape:connector-curvature="0"
           style="fill:#ffffff" />
        <path
           d="m 249.081,348.353 -0.094,-1.034 c -0.454,0.799 -1.473,1.238 -2.366,1.238 -0.971,0 -1.724,-0.329 -2.241,-0.862 -0.752,-0.768 -1.144,-1.975 -1.144,-3.291 0,-1.363 0.408,-2.617 1.207,-3.385 0.517,-0.486 1.254,-0.799 2.178,-0.799 0.862,0 1.881,0.408 2.304,1.128 v -4.31 h 1.332 v 11.314 h -1.176 z m -0.956,-6.488 c -0.313,-0.282 -0.705,-0.517 -1.285,-0.517 -1.771,0 -2.241,1.583 -2.241,3.04 0,1.458 0.47,3.04 2.241,3.04 0.58,0 0.971,-0.235 1.285,-0.517 0.658,-0.58 0.878,-1.536 0.878,-2.523 0,-0.987 -0.22,-1.943 -0.878,-2.523 z"
           id="path2761"
           inkscape:connector-curvature="0"
           style="fill:#ffffff" />
        <path
           d="m 253.001,341.599 -0.407,-0.737 c 0.814,-0.36 1.003,-0.831 1.003,-1.724 h -0.972 v -1.833 h 1.912 v 1.833 c 0,1.16 -0.391,1.975 -1.536,2.461 z"
           id="path2763"
           inkscape:connector-curvature="0"
           style="fill:#ffffff" />
        <path
           d="m 256.979,348.353 v -11.11 h 7.428 v 1.285 h -6.033 v 3.385 h 5.297 v 1.316 h -5.297 v 3.839 h 6.033 v 1.285 z"
           id="path2765"
           inkscape:connector-curvature="0"
           style="fill:#ffffff" />
        <path
           d="m 271.847,347.664 c -0.611,0.627 -1.552,0.893 -2.586,0.893 -0.987,0 -1.896,-0.235 -2.569,-0.893 -0.486,-0.47 -0.769,-1.144 -0.769,-1.818 h 1.332 c 0.016,0.548 0.267,0.956 0.643,1.238 0.36,0.267 0.925,0.361 1.427,0.361 0.548,0 1.05,-0.094 1.457,-0.439 0.22,-0.172 0.392,-0.501 0.392,-0.862 0,-0.596 -0.423,-1.019 -1.238,-1.128 -0.345,-0.047 -1.237,-0.157 -1.786,-0.235 -1.191,-0.188 -1.943,-0.925 -1.943,-2.131 0,-0.611 0.298,-1.191 0.658,-1.551 0.518,-0.533 1.348,-0.878 2.335,-0.878 1.05,0 1.99,0.329 2.523,1.003 0.345,0.423 0.563,0.878 0.563,1.52 h -1.332 c -0.016,-0.407 -0.219,-0.783 -0.454,-0.987 -0.329,-0.298 -0.768,-0.423 -1.301,-0.423 -0.313,0 -0.549,0 -0.925,0.157 -0.501,0.204 -0.799,0.627 -0.799,1.065 0,0.658 0.407,0.94 1.065,1.034 0.438,0.063 1.065,0.125 1.912,0.267 1.128,0.188 2.021,1.003 2.021,2.194 10e-4,0.688 -0.25,1.221 -0.626,1.613 z"
           id="path2767"
           inkscape:connector-curvature="0"
           style="fill:#ffffff" />
        <path
           d="m 280.4,347.773 c -0.518,0.485 -1.254,0.799 -2.179,0.799 -0.861,0 -1.88,-0.407 -2.304,-1.128 v 4.309 h -1.332 v -11.314 h 1.176 l 0.094,1.034 c 0.455,-0.799 1.474,-1.238 2.366,-1.238 0.972,0 1.724,0.329 2.241,0.862 0.752,0.768 1.144,1.974 1.144,3.291 0,1.363 -0.407,2.617 -1.206,3.385 z m -2.398,-6.409 c -0.58,0 -0.972,0.235 -1.285,0.517 -0.658,0.58 -0.878,1.536 -0.878,2.523 0,0.987 0.22,1.943 0.878,2.523 0.313,0.282 0.705,0.518 1.285,0.518 1.771,0 2.24,-1.583 2.24,-3.041 10e-4,-1.457 -0.469,-3.04 -2.24,-3.04 z"
           id="path2769"
           inkscape:connector-curvature="0"
           style="fill:#ffffff" />
        <path
           d="m 290.272,344.827 h -5.609 c 0,0.721 0.282,1.504 0.768,1.99 0.36,0.36 0.846,0.564 1.457,0.564 0.627,0 1.145,-0.172 1.474,-0.517 0.219,-0.219 0.36,-0.439 0.47,-0.862 h 1.301 c -0.109,0.784 -0.58,1.52 -1.223,1.959 -0.563,0.376 -1.269,0.595 -2.021,0.595 -1.112,0 -2.021,-0.47 -2.633,-1.191 -0.658,-0.768 -0.987,-1.818 -0.987,-2.946 0,-0.956 0.173,-1.802 0.611,-2.539 0.564,-0.956 1.614,-1.661 2.993,-1.661 1.019,0 1.834,0.392 2.413,1.019 0.643,0.706 1.02,1.724 1.003,2.79 z m -1.833,-2.758 c -0.329,-0.438 -0.862,-0.721 -1.567,-0.721 -1.441,0 -2.146,1.175 -2.178,2.335 h 4.23 c 0,-0.595 -0.172,-1.191 -0.485,-1.614 z"
           id="path2771"
           inkscape:connector-curvature="0"
           style="fill:#ffffff" />
        <path
           d="m 295.951,341.662 c -0.627,0 -1.144,0.282 -1.505,0.627 -0.642,0.611 -0.721,1.708 -0.721,2.539 v 3.526 h -1.316 v -7.929 h 1.176 l 0.109,1.395 c 0.407,-0.972 1.363,-1.442 2.366,-1.442 0.204,0 0.424,0.016 0.627,0.047 v 1.3 c -0.235,-0.048 -0.501,-0.063 -0.736,-0.063 z"
           id="path2773"
           inkscape:connector-curvature="0"
           style="fill:#ffffff" />
        <path
           d="m 304.227,348.463 c -0.706,0 -1.145,-0.533 -1.145,-1.207 h -0.031 c -0.454,0.799 -1.441,1.301 -2.555,1.301 -1.817,0 -2.726,-1.222 -2.726,-2.444 0,-1.019 0.658,-2.351 2.821,-2.476 l 2.413,-0.141 v -0.58 c 0,-0.392 -0.047,-0.877 -0.407,-1.207 -0.267,-0.25 -0.658,-0.407 -1.301,-0.407 -0.721,0 -1.176,0.204 -1.441,0.47 -0.251,0.25 -0.393,0.564 -0.393,0.956 h -1.3 c 0.017,-0.721 0.282,-1.238 0.69,-1.661 0.532,-0.564 1.472,-0.846 2.444,-0.846 1.535,0 2.413,0.658 2.789,1.52 0.157,0.361 0.235,0.768 0.235,1.223 v 3.839 c 0,0.423 0.172,0.533 0.438,0.533 0.142,0 0.345,-0.047 0.345,-0.047 v 0.987 c -0.282,0.14 -0.547,0.187 -0.876,0.187 z m -1.223,-3.934 -2.131,0.125 c -0.8,0.047 -1.74,0.423 -1.74,1.426 0,0.706 0.439,1.364 1.567,1.364 0.611,0 1.207,-0.204 1.63,-0.643 0.47,-0.486 0.674,-1.144 0.674,-1.802 z"
           id="path2775"
           inkscape:connector-curvature="0"
           style="fill:#ffffff" />
        <path
           d="m 312.096,348.353 v -5.03 c 0,-1.191 -0.486,-1.896 -1.74,-1.896 -0.768,0 -1.379,0.501 -1.724,1.222 -0.267,0.58 -0.282,1.41 -0.282,2.021 v 3.683 h -1.332 v -7.929 h 1.16 l 0.109,1.191 c 0.407,-0.909 1.505,-1.395 2.397,-1.395 1.803,0 2.743,1.082 2.743,2.915 v 5.218 z"
           id="path2777"
           inkscape:connector-curvature="0"
           style="fill:#ffffff" />
        <path
           d="m 318.647,348.463 c -1.708,0 -2.179,-1.082 -2.179,-2.147 v -4.749 h -1.535 v -1.144 h 1.535 v -2.022 l 1.332,-0.313 v 2.335 h 2.351 v 1.144 H 317.8 v 4.592 c 0,0.768 0.329,1.081 1.066,1.081 0.563,0 1.363,-0.141 1.363,-0.141 v 1.144 c -0.359,0.094 -0.845,0.22 -1.582,0.22 z"
           id="path2779"
           inkscape:connector-curvature="0"
           style="fill:#ffffff" />
        <path
           d="m 327.377,347.632 c -0.579,0.564 -1.395,0.924 -2.397,0.924 -1.002,0 -1.817,-0.36 -2.397,-0.924 -0.862,-0.846 -1.128,-1.99 -1.128,-3.244 0,-1.253 0.266,-2.397 1.128,-3.244 0.58,-0.564 1.395,-0.925 2.397,-0.925 1.002,0 1.818,0.36 2.397,0.925 0.862,0.846 1.129,1.99 1.129,3.244 0,1.254 -0.267,2.398 -1.129,3.244 z m -0.972,-5.704 c -0.329,-0.329 -0.799,-0.564 -1.426,-0.564 -0.627,0 -1.097,0.235 -1.426,0.564 -0.564,0.58 -0.736,1.536 -0.736,2.46 0,0.925 0.172,1.881 0.736,2.46 0.329,0.329 0.799,0.564 1.426,0.564 0.627,0 1.097,-0.235 1.426,-0.564 0.564,-0.58 0.737,-1.536 0.737,-2.46 10e-4,-0.924 -0.172,-1.88 -0.737,-2.46 z"
           id="path2781"
           inkscape:connector-curvature="0"
           style="fill:#ffffff" />
        <path
           d="m 102.649,366.373 -3.322,-5.767 -2.256,2.633 v 3.134 h -1.395 v -11.11 h 1.395 v 5.923 l 5.093,-5.923 h 1.74 l -3.62,4.231 3.996,6.879 z"
           id="path2783"
           inkscape:connector-curvature="0"
           style="fill:#ffffff" />
        <path
           d="m 111.673,366.482 c -0.705,0 -1.144,-0.533 -1.144,-1.207 h -0.031 c -0.455,0.799 -1.441,1.301 -2.554,1.301 -1.818,0 -2.727,-1.222 -2.727,-2.444 0,-1.019 0.658,-2.351 2.82,-2.476 l 2.414,-0.141 v -0.58 c 0,-0.392 -0.047,-0.877 -0.408,-1.207 -0.266,-0.25 -0.658,-0.407 -1.3,-0.407 -0.721,0 -1.175,0.204 -1.442,0.47 -0.25,0.25 -0.392,0.564 -0.392,0.956 h -1.301 c 0.016,-0.721 0.282,-1.238 0.689,-1.661 0.533,-0.564 1.473,-0.846 2.445,-0.846 1.536,0 2.413,0.658 2.789,1.52 0.157,0.361 0.235,0.768 0.235,1.223 v 3.839 c 0,0.423 0.172,0.533 0.438,0.533 0.141,0 0.345,-0.047 0.345,-0.047 v 0.987 c -0.28,0.14 -0.547,0.187 -0.876,0.187 z m -1.222,-3.933 -2.131,0.125 c -0.799,0.047 -1.739,0.423 -1.739,1.426 0,0.706 0.438,1.364 1.567,1.364 0.611,0 1.207,-0.204 1.63,-0.643 0.47,-0.486 0.674,-1.144 0.674,-1.802 v -0.47 z"
           id="path2785"
           inkscape:connector-curvature="0"
           style="fill:#ffffff" />
        <path
           d="m 117.056,366.482 c -1.708,0 -2.178,-1.082 -2.178,-2.147 v -4.749 h -1.536 v -1.144 h 1.536 v -2.022 l 1.332,-0.313 v 2.335 h 2.351 v 1.144 h -2.351 v 4.592 c 0,0.768 0.329,1.081 1.065,1.081 0.564,0 1.363,-0.141 1.363,-0.141 v 1.144 c -0.36,0.095 -0.846,0.22 -1.582,0.22 z"
           id="path2787"
           inkscape:connector-curvature="0"
           style="fill:#ffffff" />
        <path
           d="m 126.484,366.482 c -0.705,0 -1.144,-0.533 -1.144,-1.207 h -0.031 c -0.455,0.799 -1.441,1.301 -2.554,1.301 -1.818,0 -2.727,-1.222 -2.727,-2.444 0,-1.019 0.658,-2.351 2.82,-2.476 l 2.414,-0.141 v -0.58 c 0,-0.392 -0.047,-0.877 -0.408,-1.207 -0.266,-0.25 -0.658,-0.407 -1.3,-0.407 -0.721,0 -1.175,0.204 -1.442,0.47 -0.25,0.25 -0.392,0.564 -0.392,0.956 h -1.301 c 0.016,-0.721 0.282,-1.238 0.689,-1.661 0.533,-0.564 1.473,-0.846 2.445,-0.846 1.536,0 2.413,0.658 2.789,1.52 0.157,0.361 0.235,0.768 0.235,1.223 v 3.839 c 0,0.423 0.172,0.533 0.438,0.533 0.141,0 0.345,-0.047 0.345,-0.047 v 0.987 c -0.28,0.14 -0.547,0.187 -0.876,0.187 z m -1.222,-3.933 -2.131,0.125 c -0.799,0.047 -1.739,0.423 -1.739,1.426 0,0.706 0.438,1.364 1.567,1.364 0.611,0 1.207,-0.204 1.63,-0.643 0.47,-0.486 0.674,-1.144 0.674,-1.802 v -0.47 z"
           id="path2789"
           inkscape:connector-curvature="0"
           style="fill:#ffffff" />
        <path
           d="m 130.857,366.467 c -1.16,0 -1.661,-0.69 -1.661,-1.943 v -9.465 h 1.332 v 9.387 c 0,0.533 0.172,0.815 0.721,0.815 0.438,0 0.548,-0.016 0.548,-0.016 v 1.128 c 0,0 -0.297,0.094 -0.94,0.094 z"
           id="path2791"
           inkscape:connector-curvature="0"
           style="fill:#ffffff" />
        <path
           d="m 138.615,366.373 -0.11,-1.207 c -0.407,0.909 -1.426,1.395 -2.351,1.395 -1.802,0 -2.711,-1.081 -2.711,-2.915 v -5.203 h 1.332 v 5.015 c 0,1.191 0.439,1.896 1.692,1.896 0.533,0 0.972,-0.235 1.316,-0.596 0.501,-0.517 0.658,-1.379 0.658,-2.194 v -4.121 h 1.332 v 7.929 h -1.158 z"
           id="path2793"
           inkscape:connector-curvature="0"
           style="fill:#ffffff" />
        <path
           d="m 147.478,366.373 v -5.03 c 0,-1.191 -0.486,-1.896 -1.739,-1.896 -0.768,0 -1.379,0.501 -1.724,1.222 -0.266,0.58 -0.282,1.41 -0.282,2.021 v 3.683 H 142.4 v -7.929 h 1.16 l 0.109,1.191 c 0.408,-0.909 1.504,-1.395 2.398,-1.395 1.802,0 2.742,1.082 2.742,2.915 v 5.218 z"
           id="path2795"
           inkscape:connector-curvature="0"
           style="fill:#ffffff" />
        <path
           d="m 157.215,366.482 c -0.705,0 -1.144,-0.533 -1.144,-1.207 h -0.031 c -0.455,0.799 -1.441,1.301 -2.554,1.301 -1.818,0 -2.727,-1.222 -2.727,-2.444 0,-1.019 0.658,-2.351 2.82,-2.476 l 2.414,-0.141 v -0.58 c 0,-0.392 -0.047,-0.877 -0.408,-1.207 -0.266,-0.25 -0.658,-0.407 -1.3,-0.407 -0.721,0 -1.175,0.204 -1.442,0.47 -0.25,0.25 -0.392,0.564 -0.392,0.956 h -1.301 c 0.016,-0.721 0.282,-1.238 0.689,-1.661 0.533,-0.564 1.473,-0.846 2.445,-0.846 1.536,0 2.413,0.658 2.789,1.52 0.157,0.361 0.235,0.768 0.235,1.223 v 3.839 c 0,0.423 0.172,0.533 0.438,0.533 0.141,0 0.345,-0.047 0.345,-0.047 v 0.987 c -0.28,0.14 -0.547,0.187 -0.876,0.187 z m -1.222,-3.933 -2.131,0.125 c -0.799,0.047 -1.739,0.423 -1.739,1.426 0,0.706 0.438,1.364 1.567,1.364 0.611,0 1.207,-0.204 1.63,-0.643 0.47,-0.486 0.674,-1.144 0.674,-1.802 v -0.47 z"
           id="path2797"
           inkscape:connector-curvature="0"
           style="fill:#ffffff" />
        <path
           d="m 163.921,366.373 v -11.11 h 7.428 v 1.285 h -6.033 v 3.385 h 5.296 v 1.316 h -5.296 v 3.839 h 6.033 v 1.285 z"
           id="path2799"
           inkscape:connector-curvature="0"
           style="fill:#ffffff" />
        <path
           d="m 178.788,365.683 c -0.611,0.627 -1.551,0.893 -2.585,0.893 -0.987,0 -1.896,-0.235 -2.57,-0.893 -0.486,-0.47 -0.768,-1.144 -0.768,-1.818 h 1.332 c 0.016,0.548 0.266,0.956 0.643,1.238 0.36,0.267 0.924,0.361 1.426,0.361 0.548,0 1.05,-0.094 1.458,-0.439 0.219,-0.172 0.392,-0.501 0.392,-0.862 0,-0.596 -0.423,-1.019 -1.238,-1.128 -0.345,-0.047 -1.238,-0.157 -1.787,-0.235 -1.191,-0.188 -1.943,-0.925 -1.943,-2.131 0,-0.611 0.298,-1.191 0.658,-1.551 0.517,-0.533 1.348,-0.878 2.335,-0.878 1.05,0 1.99,0.329 2.523,1.003 0.345,0.423 0.564,0.878 0.564,1.52 h -1.332 c -0.016,-0.407 -0.22,-0.783 -0.455,-0.987 -0.329,-0.298 -0.768,-0.423 -1.301,-0.423 -0.313,0 -0.548,0 -0.924,0.157 -0.501,0.204 -0.799,0.627 -0.799,1.065 0,0.658 0.407,0.94 1.065,1.034 0.439,0.063 1.066,0.125 1.912,0.267 1.128,0.188 2.021,1.003 2.021,2.194 0,0.688 -0.251,1.222 -0.627,1.613 z"
           id="path2801"
           inkscape:connector-curvature="0"
           style="fill:#ffffff" />
        <path
           d="m 187.34,365.793 c -0.517,0.485 -1.253,0.799 -2.178,0.799 -0.862,0 -1.88,-0.407 -2.303,-1.128 v 4.309 h -1.332 v -11.314 h 1.175 l 0.094,1.034 c 0.455,-0.799 1.473,-1.238 2.366,-1.238 0.972,0 1.724,0.329 2.241,0.862 0.752,0.768 1.144,1.974 1.144,3.291 0,1.363 -0.407,2.617 -1.207,3.385 z m -2.397,-6.41 c -0.58,0 -0.972,0.235 -1.285,0.517 -0.658,0.58 -0.877,1.536 -0.877,2.523 0,0.987 0.22,1.943 0.877,2.523 0.313,0.282 0.706,0.518 1.285,0.518 1.771,0 2.241,-1.583 2.241,-3.041 0,-1.457 -0.47,-3.04 -2.241,-3.04 z"
           id="path2803"
           inkscape:connector-curvature="0"
           style="fill:#ffffff" />
        <path
           d="m 197.213,362.847 h -5.61 c 0,0.721 0.282,1.504 0.768,1.99 0.36,0.36 0.846,0.564 1.458,0.564 0.626,0 1.144,-0.172 1.473,-0.517 0.22,-0.219 0.361,-0.439 0.47,-0.862 h 1.301 c -0.11,0.784 -0.58,1.52 -1.222,1.959 -0.564,0.376 -1.27,0.595 -2.021,0.595 -1.113,0 -2.021,-0.47 -2.633,-1.191 -0.658,-0.768 -0.987,-1.818 -0.987,-2.946 0,-0.956 0.172,-1.802 0.611,-2.539 0.564,-0.956 1.614,-1.661 2.993,-1.661 1.019,0 1.833,0.392 2.413,1.019 0.643,0.706 1.019,1.724 1.003,2.79 z m -1.833,-2.759 c -0.329,-0.438 -0.862,-0.721 -1.567,-0.721 -1.442,0 -2.147,1.175 -2.179,2.335 h 4.231 c 0.001,-0.595 -0.172,-1.19 -0.485,-1.614 z"
           id="path2805"
           inkscape:connector-curvature="0"
           style="fill:#ffffff" />
        <path
           d="m 202.891,359.681 c -0.627,0 -1.144,0.282 -1.504,0.627 -0.643,0.611 -0.721,1.708 -0.721,2.539 v 3.526 h -1.316 v -7.929 h 1.175 l 0.109,1.395 c 0.408,-0.972 1.364,-1.442 2.367,-1.442 0.204,0 0.423,0.016 0.626,0.047 v 1.3 c -0.234,-0.047 -0.501,-0.063 -0.736,-0.063 z"
           id="path2807"
           inkscape:connector-curvature="0"
           style="fill:#ffffff" />
        <path
           d="m 211.167,366.482 c -0.705,0 -1.144,-0.533 -1.144,-1.207 h -0.031 c -0.455,0.799 -1.441,1.301 -2.554,1.301 -1.818,0 -2.727,-1.222 -2.727,-2.444 0,-1.019 0.658,-2.351 2.82,-2.476 l 2.414,-0.141 v -0.58 c 0,-0.392 -0.047,-0.877 -0.408,-1.207 -0.266,-0.25 -0.658,-0.407 -1.3,-0.407 -0.721,0 -1.175,0.204 -1.442,0.47 -0.25,0.25 -0.392,0.564 -0.392,0.956 h -1.301 c 0.016,-0.721 0.282,-1.238 0.689,-1.661 0.533,-0.564 1.473,-0.846 2.445,-0.846 1.536,0 2.413,0.658 2.789,1.52 0.157,0.361 0.235,0.768 0.235,1.223 v 3.839 c 0,0.423 0.172,0.533 0.438,0.533 0.141,0 0.345,-0.047 0.345,-0.047 v 0.987 c -0.28,0.14 -0.546,0.187 -0.876,0.187 z m -1.222,-3.933 -2.131,0.125 c -0.799,0.047 -1.739,0.423 -1.739,1.426 0,0.706 0.438,1.364 1.567,1.364 0.611,0 1.207,-0.204 1.63,-0.643 0.47,-0.486 0.674,-1.144 0.674,-1.802 v -0.47 z"
           id="path2809"
           inkscape:connector-curvature="0"
           style="fill:#ffffff" />
        <path
           d="m 219.036,366.373 v -5.03 c 0,-1.191 -0.486,-1.896 -1.739,-1.896 -0.768,0 -1.379,0.501 -1.724,1.222 -0.266,0.58 -0.282,1.41 -0.282,2.021 v 3.683 h -1.332 v -7.929 h 1.16 l 0.109,1.191 c 0.408,-0.909 1.504,-1.395 2.398,-1.395 1.802,0 2.742,1.082 2.742,2.915 v 5.218 z"
           id="path2811"
           inkscape:connector-curvature="0"
           style="fill:#ffffff" />
        <path
           d="m 225.588,366.482 c -1.708,0 -2.178,-1.082 -2.178,-2.147 v -4.749 h -1.536 v -1.144 h 1.536 v -2.022 l 1.332,-0.313 v 2.335 h 2.351 v 1.144 h -2.351 v 4.592 c 0,0.768 0.329,1.081 1.065,1.081 0.564,0 1.363,-0.141 1.363,-0.141 v 1.144 c -0.359,0.095 -0.845,0.22 -1.582,0.22 z"
           id="path2813"
           inkscape:connector-curvature="0"
           style="fill:#ffffff" />
        <path
           d="m 234.318,365.652 c -0.58,0.564 -1.395,0.924 -2.398,0.924 -1.003,0 -1.818,-0.36 -2.397,-0.924 -0.862,-0.846 -1.128,-1.99 -1.128,-3.244 0,-1.253 0.267,-2.397 1.128,-3.244 0.58,-0.564 1.395,-0.925 2.397,-0.925 1.002,0 1.818,0.36 2.398,0.925 0.862,0.846 1.128,1.99 1.128,3.244 0,1.254 -0.266,2.398 -1.128,3.244 z m -0.972,-5.704 c -0.329,-0.329 -0.799,-0.564 -1.426,-0.564 -0.627,0 -1.097,0.235 -1.426,0.564 -0.564,0.58 -0.737,1.536 -0.737,2.46 0,0.925 0.172,1.881 0.737,2.46 0.329,0.329 0.799,0.564 1.426,0.564 0.627,0 1.097,-0.235 1.426,-0.564 0.564,-0.58 0.736,-1.536 0.736,-2.46 0.001,-0.925 -0.172,-1.881 -0.736,-2.46 z"
           id="path2815"
           inkscape:connector-curvature="0"
           style="fill:#ffffff" />
        <path
           d="m 237.283,362.267 v -1.238 h 4.654 v 1.238 z"
           id="path2817"
           inkscape:connector-curvature="0"
           style="fill:#ffffff" />
        <path
           d="m 250.685,366.373 -0.909,-2.633 h -4.826 l -0.894,2.633 h -1.41 l 3.917,-11.11 h 1.63 l 3.933,11.11 z m -3.338,-9.716 -1.959,5.767 h 3.934 z"
           id="path2819"
           inkscape:connector-curvature="0"
           style="fill:#ffffff" />
        <path
           d="m 259.011,365.683 c -0.611,0.627 -1.551,0.893 -2.585,0.893 -0.987,0 -1.896,-0.235 -2.57,-0.893 -0.486,-0.47 -0.768,-1.144 -0.768,-1.818 h 1.332 c 0.016,0.548 0.266,0.956 0.642,1.238 0.361,0.267 0.925,0.361 1.426,0.361 0.548,0 1.05,-0.094 1.458,-0.439 0.219,-0.172 0.392,-0.501 0.392,-0.862 0,-0.596 -0.423,-1.019 -1.238,-1.128 -0.345,-0.047 -1.238,-0.157 -1.787,-0.235 -1.191,-0.188 -1.943,-0.925 -1.943,-2.131 0,-0.611 0.298,-1.191 0.658,-1.551 0.517,-0.533 1.348,-0.878 2.335,-0.878 1.05,0 1.99,0.329 2.523,1.003 0.345,0.423 0.564,0.878 0.564,1.52 h -1.332 c -0.016,-0.407 -0.22,-0.783 -0.455,-0.987 -0.329,-0.298 -0.768,-0.423 -1.301,-0.423 -0.313,0 -0.548,0 -0.924,0.157 -0.501,0.204 -0.799,0.627 -0.799,1.065 0,0.658 0.407,0.94 1.065,1.034 0.439,0.063 1.066,0.125 1.912,0.267 1.128,0.188 2.021,1.003 2.021,2.194 10e-4,0.688 -0.25,1.222 -0.626,1.613 z"
           id="path2821"
           inkscape:connector-curvature="0"
           style="fill:#ffffff" />
        <path
           d="m 267.176,365.652 c -0.579,0.564 -1.395,0.924 -2.397,0.924 -1.002,0 -1.817,-0.36 -2.397,-0.924 -0.862,-0.846 -1.128,-1.99 -1.128,-3.244 0,-1.253 0.266,-2.397 1.128,-3.244 0.58,-0.564 1.395,-0.925 2.397,-0.925 1.002,0 1.818,0.36 2.397,0.925 0.862,0.846 1.129,1.99 1.129,3.244 0,1.254 -0.266,2.398 -1.129,3.244 z m -0.971,-5.704 c -0.329,-0.329 -0.799,-0.564 -1.426,-0.564 -0.627,0 -1.097,0.235 -1.426,0.564 -0.564,0.58 -0.736,1.536 -0.736,2.46 0,0.925 0.172,1.881 0.736,2.46 0.329,0.329 0.799,0.564 1.426,0.564 0.627,0 1.097,-0.235 1.426,-0.564 0.564,-0.58 0.737,-1.536 0.737,-2.46 0,-0.925 -0.173,-1.881 -0.737,-2.46 z"
           id="path2823"
           inkscape:connector-curvature="0"
           style="fill:#ffffff" />
        <path
           d="m 275.82,365.714 c -0.564,0.548 -1.316,0.862 -2.288,0.862 -1.426,0 -2.335,-0.658 -2.899,-1.489 -0.423,-0.626 -0.657,-1.489 -0.657,-2.68 0,-1.191 0.234,-2.053 0.657,-2.68 0.564,-0.831 1.458,-1.489 2.884,-1.489 0.94,0 1.708,0.313 2.257,0.846 0.532,0.517 0.877,1.175 0.94,2.038 h -1.348 c -0.063,-0.549 -0.267,-0.94 -0.564,-1.238 -0.313,-0.298 -0.768,-0.486 -1.285,-0.486 -0.611,0 -1.034,0.22 -1.379,0.517 -0.627,0.533 -0.799,1.52 -0.799,2.492 0,0.972 0.172,1.959 0.799,2.492 0.345,0.298 0.768,0.517 1.379,0.517 0.549,0 1.034,-0.204 1.348,-0.533 0.282,-0.298 0.471,-0.658 0.533,-1.175 h 1.348 c -0.064,0.847 -0.393,1.489 -0.926,2.006 z"
           id="path2825"
           inkscape:connector-curvature="0"
           style="fill:#ffffff" />
        <path
           d="m 278.702,356.625 v -1.567 h 1.552 v 1.567 z m 0.093,9.748 v -7.929 h 1.363 v 7.929 z"
           id="path2827"
           inkscape:connector-curvature="0"
           style="fill:#ffffff" />
        <path
           d="m 288.207,365.652 c -0.579,0.564 -1.395,0.924 -2.397,0.924 -1.002,0 -1.817,-0.36 -2.397,-0.924 -0.862,-0.846 -1.128,-1.99 -1.128,-3.244 0,-1.253 0.266,-2.397 1.128,-3.244 0.58,-0.564 1.395,-0.925 2.397,-0.925 1.002,0 1.818,0.36 2.397,0.925 0.862,0.846 1.129,1.99 1.129,3.244 -0.001,1.254 -0.267,2.398 -1.129,3.244 z m -0.972,-5.704 c -0.329,-0.329 -0.799,-0.564 -1.426,-0.564 -0.627,0 -1.097,0.235 -1.426,0.564 -0.564,0.58 -0.736,1.536 -0.736,2.46 0,0.925 0.172,1.881 0.736,2.46 0.329,0.329 0.799,0.564 1.426,0.564 0.627,0 1.097,-0.235 1.426,-0.564 0.564,-0.58 0.737,-1.536 0.737,-2.46 0,-0.925 -0.173,-1.881 -0.737,-2.46 z"
           id="path2829"
           inkscape:connector-curvature="0"
           style="fill:#ffffff" />
      </g>
    </g>
  </g>
</svg>
