<?xml version="1.0" encoding="UTF-8" standalone="no"?>
<!-- Created with Inkscape (http://www.inkscape.org/) -->

<svg
   width="117.57739mm"
   height="21.39315mm"
   viewBox="0 0 117.57739 21.39315"
   version="1.1"
   id="svg5"
   inkscape:version="1.1.1 (1:1.1+202109281943+c3084ef5ed)"
   sodipodi:docname="logo-kea-vector.svg"
   xmlns:inkscape="http://www.inkscape.org/namespaces/inkscape"
   xmlns:sodipodi="http://sodipodi.sourceforge.net/DTD/sodipodi-0.dtd"
   xmlns="http://www.w3.org/2000/svg"
   xmlns:svg="http://www.w3.org/2000/svg">
  <sodipodi:namedview
     id="namedview7"
     pagecolor="#ffffff"
     bordercolor="#666666"
     borderopacity="1.0"
     inkscape:pageshadow="2"
     inkscape:pageopacity="0.0"
     inkscape:pagecheckerboard="0"
     inkscape:document-units="mm"
     showgrid="false"
     fit-margin-top="0"
     fit-margin-left="0"
     fit-margin-right="0"
     fit-margin-bottom="0"
     inkscape:zoom="1"
     inkscape:cx="457"
     inkscape:cy="-18"
     inkscape:window-width="1920"
     inkscape:window-height="1025"
     inkscape:window-x="0"
     inkscape:window-y="27"
     inkscape:window-maximized="1"
     inkscape:current-layer="layer1"
     lock-margins="true" />
  <defs
     id="defs2">
	
	
	
	
	
	
	
</defs>
  <g
     inkscape:label="Capa 1"
     inkscape:groupmode="layer"
     id="layer1"
     transform="translate(15.895284,-153.09816)">
    <g
       id="g3515">
      <g
         id="g2466"
         transform="matrix(0.26458333,0,0,0.26458333,-38.672205,29.300149)">
		<path
   d="m 96.137,495.292 v -24.125 h 17.184 v 3.98 h -12.794 v 5.614 h 11.263 v 3.947 h -11.263 v 6.602 h 12.794 v 3.981 H 96.137 Z"
   id="path2440" />

		<path
   d="m 132.688,493.148 c -1.837,1.837 -4.662,2.586 -7.622,2.586 -2.552,0 -5.24,-0.681 -7.213,-2.484 -1.429,-1.293 -2.518,-3.335 -2.518,-5.614 h 4.491 c 0,1.19 0.544,2.246 1.259,2.96 1.021,1.021 2.654,1.293 4.049,1.293 1.667,0 3.267,-0.34 4.185,-1.293 0.544,-0.578 0.953,-1.156 0.953,-2.313 0,-1.77 -1.361,-2.586 -2.858,-2.858 -1.633,-0.307 -3.743,-0.374 -5.342,-0.646 -3.335,-0.544 -6.125,-2.722 -6.125,-6.737 0,-1.905 0.851,-3.505 2.11,-4.764 1.599,-1.565 4.253,-2.552 7.078,-2.552 2.586,0 5.104,0.816 6.737,2.348 1.429,1.361 2.416,3.13 2.45,5.138 h -4.491 c -0.034,-0.851 -0.477,-1.77 -1.055,-2.382 -0.783,-0.816 -2.382,-1.293 -3.675,-1.293 -1.361,0 -2.926,0.307 -3.913,1.327 -0.51,0.544 -0.817,1.157 -0.817,2.042 0,1.564 1.021,2.382 2.45,2.62 1.531,0.237 3.675,0.408 5.24,0.612 3.607,0.51 6.635,2.858 6.635,6.976 -0.001,2.243 -0.818,3.843 -2.008,5.034 z"
   id="path2442" />

		<path
   d="m 147.59,486.648 h -5.104 v 8.644 h -4.355 v -24.125 h 9.459 c 5.546,0 8.507,3.096 8.507,7.724 0,4.628 -2.961,7.757 -8.507,7.757 z m -0.17,-11.636 h -4.934 v 7.792 h 4.934 c 2.926,0 4.253,-1.565 4.253,-3.879 0,-2.314 -1.327,-3.913 -4.253,-3.913 z"
   id="path2444" />

		<path
   d="m 158.923,495.292 v -24.125 h 17.184 v 3.98 h -12.794 v 5.614 h 11.263 v 3.947 h -11.263 v 6.602 h 12.794 v 3.981 h -17.184 z"
   id="path2446" />

		<path
   d="m 193.5,495.292 -4.016,-9.119 h -5.342 v 9.119 h -4.423 v -24.125 h 10.174 c 5.75,0 8.371,3.606 8.371,7.485 0,3.232 -1.77,5.785 -4.424,6.771 l 4.424,9.868 H 193.5 Z m -3.607,-20.28 h -5.785 v 7.214 h 5.853 c 2.484,0 3.913,-1.293 3.913,-3.573 0,-1.94 -1.498,-3.641 -3.981,-3.641 z"
   id="path2448" />

		<path
   d="m 217.174,495.292 -1.565,-4.628 h -9.596 l -1.565,4.628 h -4.423 l 8.473,-24.125 h 4.798 l 8.473,24.125 z m -6.362,-18.749 -3.437,10.174 h 6.874 z"
   id="path2450" />

		<path
   d="m 239.147,495.292 -10.446,-16.571 v 16.571 h -4.321 v -24.125 h 4.662 l 10.311,16.333 v -16.333 h 4.321 v 24.125 z"
   id="path2452" />

		<path
   d="m 257.919,475.25 v 20.042 H 253.53 V 475.25 h -7.146 v -4.083 h 18.681 v 4.083 z"
   id="path2454" />

		<path
   d="m 283.309,493.012 c -1.838,1.838 -4.355,2.723 -6.942,2.723 -2.586,0 -5.104,-0.885 -6.941,-2.723 -2.62,-2.62 -3.062,-5.818 -3.062,-9.766 0,-3.948 0.442,-7.18 3.062,-9.8 1.838,-1.838 4.355,-2.722 6.941,-2.722 2.587,0 5.104,0.884 6.942,2.722 2.62,2.62 3.062,5.853 3.062,9.8 0,3.947 -0.442,7.146 -3.062,9.766 z m -3.131,-16.707 c -0.953,-1.021 -2.416,-1.6 -3.812,-1.6 -1.395,0 -2.857,0.579 -3.811,1.6 -1.667,1.735 -1.735,4.729 -1.735,6.941 0,2.212 0.068,5.172 1.735,6.907 0.953,1.021 2.416,1.6 3.811,1.6 1.396,0 2.858,-0.578 3.812,-1.6 1.667,-1.735 1.735,-4.695 1.735,-6.907 0,-2.212 -0.068,-5.206 -1.735,-6.941 z"
   id="path2456" />

		<path
   d="m 298.796,476.302 3.402,4.253 -2.96,2.212 -2.858,-4.729 -2.893,4.764 -2.96,-2.212 3.402,-4.287 -5.138,-1.361 1.123,-3.607 4.934,2.042 -0.34,-5.479 3.675,0.034 -0.375,5.479 4.968,-2.076 1.156,3.607 z"
   id="path2458" />

		<path
   d="m 111.416,523.431 c -1.804,1.837 -4.322,2.858 -6.908,2.858 -2.586,0 -5.002,-0.851 -6.839,-2.688 -2.62,-2.62 -2.994,-5.853 -2.994,-9.8 0,-3.947 0.374,-7.18 2.994,-9.8 1.837,-1.838 4.253,-2.722 6.839,-2.722 2.586,0 5.104,0.952 6.908,2.79 1.395,1.429 2.109,3.334 2.313,5.24 h -4.491 c -0.102,-1.055 -0.477,-1.804 -1.089,-2.553 -0.783,-0.986 -2.144,-1.497 -3.641,-1.497 -1.395,0 -2.756,0.579 -3.709,1.6 -1.667,1.735 -1.667,4.729 -1.667,6.941 0,2.212 0,5.206 1.667,6.941 0.953,1.021 2.314,1.6 3.709,1.6 1.497,0 2.858,-0.545 3.641,-1.531 0.612,-0.749 0.987,-1.6 1.089,-2.654 h 4.491 c -0.204,1.906 -0.918,3.845 -2.313,5.275 z"
   id="path2460" />

		<path
   d="m 131.459,525.847 -1.565,-4.628 h -9.596 l -1.565,4.628 h -4.423 l 8.473,-24.125 h 4.798 l 8.473,24.125 z m -6.363,-18.749 -3.437,10.174 h 6.873 z"
   id="path2462" />

		<path
   d="m 145.344,505.805 v 20.042 h -4.389 v -20.042 h -7.146 v -4.083 h 18.681 v 4.083 z"
   id="path2464" />

	</g>
      <g
         id="g2578"
         transform="matrix(0.26458333,0,0,0.26458333,-38.672205,29.300149)">
		<path
   d="m 90.223,537.973 1.63,2.021 -1.05,0.752 -1.41,-2.179 -1.395,2.179 -1.05,-0.783 1.63,-1.99 -2.492,-0.643 0.408,-1.238 2.397,0.94 -0.125,-2.586 h 1.301 l -0.157,2.586 2.413,-0.94 0.392,1.238 z"
   id="path2468" />

		<path
   d="m 102.26,545.354 -0.909,-2.633 h -4.826 l -0.894,2.633 h -1.41 l 3.917,-11.11 h 1.63 l 3.933,11.11 z m -3.338,-9.716 -1.959,5.767 h 3.934 z"
   id="path2470" />

		<path
   d="m 110.586,544.664 c -0.611,0.627 -1.551,0.893 -2.585,0.893 -0.987,0 -1.896,-0.234 -2.57,-0.893 -0.486,-0.471 -0.768,-1.145 -0.768,-1.818 h 1.332 c 0.016,0.549 0.266,0.956 0.643,1.238 0.36,0.267 0.924,0.36 1.426,0.36 0.548,0 1.05,-0.094 1.458,-0.438 0.219,-0.173 0.392,-0.502 0.392,-0.862 0,-0.596 -0.423,-1.019 -1.238,-1.128 -0.345,-0.047 -1.238,-0.157 -1.787,-0.235 -1.191,-0.188 -1.943,-0.925 -1.943,-2.131 0,-0.611 0.298,-1.191 0.658,-1.552 0.517,-0.533 1.348,-0.878 2.335,-0.878 1.05,0 1.99,0.329 2.523,1.003 0.345,0.424 0.564,0.878 0.564,1.521 h -1.332 c -0.016,-0.407 -0.22,-0.783 -0.455,-0.987 -0.329,-0.298 -0.768,-0.423 -1.301,-0.423 -0.313,0 -0.548,0 -0.924,0.156 -0.501,0.204 -0.799,0.627 -0.799,1.065 0,0.658 0.407,0.94 1.065,1.034 0.439,0.063 1.066,0.126 1.912,0.267 1.128,0.188 2.021,1.003 2.021,2.194 0,0.689 -0.251,1.222 -0.627,1.614 z"
   id="path2472" />

		<path
   d="m 118.768,544.664 c -0.611,0.627 -1.551,0.893 -2.585,0.893 -0.987,0 -1.896,-0.234 -2.57,-0.893 -0.486,-0.471 -0.768,-1.145 -0.768,-1.818 h 1.332 c 0.016,0.549 0.266,0.956 0.642,1.238 0.361,0.267 0.925,0.36 1.426,0.36 0.548,0 1.05,-0.094 1.458,-0.438 0.219,-0.173 0.392,-0.502 0.392,-0.862 0,-0.596 -0.423,-1.019 -1.238,-1.128 -0.345,-0.047 -1.238,-0.157 -1.787,-0.235 -1.191,-0.188 -1.943,-0.925 -1.943,-2.131 0,-0.611 0.298,-1.191 0.658,-1.552 0.517,-0.533 1.348,-0.878 2.335,-0.878 1.05,0 1.99,0.329 2.523,1.003 0.345,0.424 0.564,0.878 0.564,1.521 h -1.332 c -0.016,-0.407 -0.22,-0.783 -0.455,-0.987 -0.329,-0.298 -0.768,-0.423 -1.301,-0.423 -0.313,0 -0.548,0 -0.924,0.156 -0.501,0.204 -0.799,0.627 -0.799,1.065 0,0.658 0.407,0.94 1.065,1.034 0.439,0.063 1.066,0.126 1.912,0.267 1.128,0.188 2.021,1.003 2.021,2.194 10e-4,0.689 -0.25,1.222 -0.626,1.614 z"
   id="path2474" />

		<path
   d="m 126.933,544.633 c -0.58,0.563 -1.395,0.924 -2.397,0.924 -1.002,0 -1.818,-0.36 -2.397,-0.924 -0.862,-0.847 -1.128,-1.99 -1.128,-3.244 0,-1.254 0.267,-2.397 1.128,-3.244 0.58,-0.564 1.395,-0.925 2.397,-0.925 1.002,0 1.818,0.36 2.397,0.925 0.862,0.847 1.128,1.99 1.128,3.244 0,1.254 -0.266,2.397 -1.128,3.244 z m -0.971,-5.704 c -0.329,-0.329 -0.799,-0.564 -1.426,-0.564 -0.627,0 -1.097,0.235 -1.426,0.564 -0.564,0.579 -0.737,1.535 -0.737,2.46 0,0.925 0.172,1.881 0.737,2.46 0.329,0.329 0.799,0.564 1.426,0.564 0.627,0 1.097,-0.235 1.426,-0.564 0.564,-0.579 0.736,-1.535 0.736,-2.46 0,-0.925 -0.172,-1.881 -0.736,-2.46 z"
   id="path2476" />

		<path
   d="m 135.576,544.695 c -0.564,0.548 -1.316,0.861 -2.288,0.861 -1.426,0 -2.335,-0.658 -2.899,-1.488 -0.423,-0.627 -0.658,-1.489 -0.658,-2.68 0,-1.191 0.235,-2.053 0.658,-2.68 0.564,-0.831 1.458,-1.489 2.883,-1.489 0.94,0 1.708,0.313 2.257,0.847 0.533,0.517 0.877,1.175 0.94,2.037 h -1.348 c -0.062,-0.549 -0.266,-0.94 -0.564,-1.238 -0.313,-0.298 -0.768,-0.485 -1.285,-0.485 -0.611,0 -1.034,0.22 -1.379,0.517 -0.627,0.533 -0.799,1.521 -0.799,2.492 0,0.971 0.172,1.959 0.799,2.491 0.345,0.298 0.768,0.518 1.379,0.518 0.549,0 1.034,-0.204 1.348,-0.533 0.282,-0.298 0.47,-0.658 0.533,-1.175 h 1.348 c -0.063,0.845 -0.392,1.488 -0.925,2.005 z"
   id="path2478" />

		<path
   d="m 138.458,535.606 v -1.567 h 1.551 v 1.567 z m 0.095,9.748 v -7.93 h 1.363 v 7.93 z"
   id="path2480" />

		<path
   d="m 148.401,545.463 c -0.705,0 -1.144,-0.533 -1.144,-1.207 h -0.031 c -0.455,0.8 -1.441,1.301 -2.554,1.301 -1.818,0 -2.727,-1.222 -2.727,-2.444 0,-1.019 0.658,-2.351 2.82,-2.476 l 2.414,-0.142 v -0.58 c 0,-0.392 -0.047,-0.877 -0.408,-1.206 -0.266,-0.251 -0.658,-0.407 -1.3,-0.407 -0.721,0 -1.175,0.203 -1.442,0.47 -0.25,0.251 -0.392,0.564 -0.392,0.956 h -1.301 c 0.016,-0.721 0.282,-1.238 0.689,-1.661 0.533,-0.564 1.473,-0.847 2.445,-0.847 1.536,0 2.413,0.658 2.789,1.521 0.157,0.36 0.235,0.768 0.235,1.223 v 3.839 c 0,0.423 0.172,0.533 0.438,0.533 0.141,0 0.345,-0.047 0.345,-0.047 v 0.987 c -0.28,0.14 -0.547,0.187 -0.876,0.187 z m -1.222,-3.934 -2.131,0.126 c -0.799,0.047 -1.739,0.423 -1.739,1.426 0,0.705 0.438,1.363 1.567,1.363 0.611,0 1.207,-0.204 1.63,-0.643 0.47,-0.485 0.674,-1.144 0.674,-1.802 v -0.47 z"
   id="path2482" />

		<path
   d="m 156.474,544.695 c -0.564,0.548 -1.316,0.861 -2.288,0.861 -1.426,0 -2.335,-0.658 -2.899,-1.488 -0.423,-0.627 -0.658,-1.489 -0.658,-2.68 0,-1.191 0.235,-2.053 0.658,-2.68 0.564,-0.831 1.458,-1.489 2.883,-1.489 0.94,0 1.708,0.313 2.257,0.847 0.533,0.517 0.877,1.175 0.94,2.037 h -1.348 c -0.062,-0.549 -0.266,-0.94 -0.564,-1.238 -0.313,-0.298 -0.768,-0.485 -1.285,-0.485 -0.611,0 -1.034,0.22 -1.379,0.517 -0.627,0.533 -0.799,1.521 -0.799,2.492 0,0.971 0.172,1.959 0.799,2.491 0.345,0.298 0.768,0.518 1.379,0.518 0.549,0 1.034,-0.204 1.348,-0.533 0.282,-0.298 0.47,-0.658 0.533,-1.175 h 1.348 c -0.064,0.845 -0.393,1.488 -0.925,2.005 z"
   id="path2484" />

		<path
   d="m 159.356,535.606 v -1.567 h 1.551 v 1.567 z m 0.094,9.748 v -7.93 h 1.363 v 7.93 z"
   id="path2486" />

		<path
   d="m 168.862,544.633 c -0.58,0.563 -1.395,0.924 -2.398,0.924 -1.003,0 -1.818,-0.36 -2.397,-0.924 -0.862,-0.847 -1.128,-1.99 -1.128,-3.244 0,-1.254 0.267,-2.397 1.128,-3.244 0.58,-0.564 1.395,-0.925 2.397,-0.925 1.002,0 1.818,0.36 2.398,0.925 0.862,0.847 1.128,1.99 1.128,3.244 0,1.254 -0.266,2.397 -1.128,3.244 z m -0.972,-5.704 c -0.329,-0.329 -0.799,-0.564 -1.426,-0.564 -0.627,0 -1.097,0.235 -1.426,0.564 -0.564,0.579 -0.737,1.535 -0.737,2.46 0,0.925 0.172,1.881 0.737,2.46 0.329,0.329 0.799,0.564 1.426,0.564 0.627,0 1.097,-0.235 1.426,-0.564 0.564,-0.579 0.736,-1.535 0.736,-2.46 0,-0.925 -0.172,-1.881 -0.736,-2.46 z m -2.601,-2.257 -0.47,-0.736 2.664,-1.928 0.705,1.112 z"
   id="path2488" />

		<path
   d="m 182.65,544.382 c -0.674,0.674 -1.771,1.19 -2.978,1.19 -1.112,0 -2.209,-0.407 -3.009,-1.19 -1.207,-1.176 -1.395,-2.806 -1.395,-4.576 0,-1.77 0.188,-3.4 1.395,-4.576 0.799,-0.783 1.896,-1.19 3.009,-1.19 1.207,0 2.288,0.47 2.962,1.144 0.643,0.658 1.05,1.505 1.097,2.539 h -1.442 c -0.016,-0.611 -0.251,-1.145 -0.611,-1.552 -0.438,-0.485 -1.16,-0.814 -2.006,-0.814 -0.752,0 -1.489,0.298 -2.021,0.846 -0.909,0.94 -0.94,2.445 -0.94,3.604 0,1.16 0.031,2.664 0.94,3.604 0.533,0.549 1.27,0.846 2.021,0.846 0.846,0 1.583,-0.36 2.021,-0.846 0.361,-0.407 0.596,-0.987 0.611,-1.599 h 1.442 c -0.046,1.034 -0.453,1.912 -1.096,2.57 z"
   id="path2490" />

		<path
   d="m 191.666,545.463 c -0.705,0 -1.144,-0.533 -1.144,-1.207 h -0.031 c -0.455,0.8 -1.441,1.301 -2.554,1.301 -1.818,0 -2.727,-1.222 -2.727,-2.444 0,-1.019 0.658,-2.351 2.82,-2.476 l 2.414,-0.142 v -0.58 c 0,-0.392 -0.047,-0.877 -0.408,-1.206 -0.266,-0.251 -0.658,-0.407 -1.3,-0.407 -0.721,0 -1.175,0.203 -1.442,0.47 -0.25,0.251 -0.392,0.564 -0.392,0.956 h -1.301 c 0.016,-0.721 0.282,-1.238 0.689,-1.661 0.533,-0.564 1.473,-0.847 2.445,-0.847 1.536,0 2.413,0.658 2.789,1.521 0.157,0.36 0.235,0.768 0.235,1.223 v 3.839 c 0,0.423 0.172,0.533 0.438,0.533 0.141,0 0.345,-0.047 0.345,-0.047 v 0.987 c -0.281,0.14 -0.547,0.187 -0.876,0.187 z m -1.223,-3.934 -2.131,0.126 c -0.799,0.047 -1.739,0.423 -1.739,1.426 0,0.705 0.438,1.363 1.567,1.363 0.611,0 1.207,-0.204 1.63,-0.643 0.47,-0.485 0.674,-1.144 0.674,-1.802 v -0.47 z"
   id="path2492" />

		<path
   d="m 197.049,545.463 c -1.708,0 -2.178,-1.081 -2.178,-2.146 v -4.749 h -1.536 v -1.144 h 1.536 v -2.021 l 1.332,-0.313 v 2.335 h 2.351 v 1.144 h -2.351 v 4.592 c 0,0.768 0.329,1.081 1.065,1.081 0.564,0 1.363,-0.141 1.363,-0.141 v 1.144 c -0.36,0.093 -0.845,0.218 -1.582,0.218 z"
   id="path2494" />

		<path
   d="m 206.478,545.463 c -0.705,0 -1.144,-0.533 -1.144,-1.207 h -0.031 c -0.455,0.8 -1.441,1.301 -2.554,1.301 -1.818,0 -2.727,-1.222 -2.727,-2.444 0,-1.019 0.658,-2.351 2.82,-2.476 l 2.414,-0.142 v -0.58 c 0,-0.392 -0.047,-0.877 -0.408,-1.206 -0.266,-0.251 -0.658,-0.407 -1.3,-0.407 -0.721,0 -1.175,0.203 -1.442,0.47 -0.25,0.251 -0.392,0.564 -0.392,0.956 h -1.301 c 0.016,-0.721 0.282,-1.238 0.689,-1.661 0.533,-0.564 1.473,-0.847 2.445,-0.847 1.536,0 2.413,0.658 2.789,1.521 0.157,0.36 0.235,0.768 0.235,1.223 v 3.839 c 0,0.423 0.172,0.533 0.438,0.533 0.141,0 0.345,-0.047 0.345,-0.047 v 0.987 c -0.281,0.14 -0.547,0.187 -0.876,0.187 z m -1.223,-3.934 -2.131,0.126 c -0.799,0.047 -1.739,0.423 -1.739,1.426 0,0.705 0.438,1.363 1.567,1.363 0.611,0 1.207,-0.204 1.63,-0.643 0.47,-0.485 0.674,-1.144 0.674,-1.802 v -0.47 z"
   id="path2496" />

		<path
   d="m 210.85,545.447 c -1.16,0 -1.661,-0.689 -1.661,-1.943 v -9.465 h 1.332 v 9.387 c 0,0.533 0.172,0.814 0.721,0.814 0.438,0 0.548,-0.016 0.548,-0.016 v 1.129 c 0.001,0.001 -0.297,0.094 -0.94,0.094 z"
   id="path2498" />

		<path
   d="m 219.644,545.463 c -0.705,0 -1.144,-0.533 -1.144,-1.207 h -0.031 c -0.455,0.8 -1.441,1.301 -2.554,1.301 -1.818,0 -2.727,-1.222 -2.727,-2.444 0,-1.019 0.658,-2.351 2.82,-2.476 l 2.414,-0.142 v -0.58 c 0,-0.392 -0.047,-0.877 -0.408,-1.206 -0.266,-0.251 -0.658,-0.407 -1.3,-0.407 -0.721,0 -1.175,0.203 -1.442,0.47 -0.25,0.251 -0.392,0.564 -0.392,0.956 h -1.301 c 0.016,-0.721 0.282,-1.238 0.689,-1.661 0.533,-0.564 1.473,-0.847 2.445,-0.847 1.536,0 2.413,0.658 2.789,1.521 0.157,0.36 0.235,0.768 0.235,1.223 v 3.839 c 0,0.423 0.172,0.533 0.438,0.533 0.141,0 0.345,-0.047 0.345,-0.047 v 0.987 c -0.281,0.14 -0.547,0.187 -0.876,0.187 z m -1.223,-3.934 -2.131,0.126 c -0.799,0.047 -1.739,0.423 -1.739,1.426 0,0.705 0.438,1.363 1.567,1.363 0.611,0 1.207,-0.204 1.63,-0.643 0.47,-0.485 0.674,-1.144 0.674,-1.802 v -0.47 z"
   id="path2500" />

		<path
   d="m 227.513,545.354 v -5.03 c 0,-1.191 -0.486,-1.896 -1.739,-1.896 -0.768,0 -1.379,0.502 -1.724,1.223 -0.266,0.579 -0.282,1.41 -0.282,2.021 v 3.683 h -1.332 v -7.93 h 1.16 l 0.109,1.191 c 0.408,-0.909 1.504,-1.396 2.398,-1.396 1.802,0 2.742,1.082 2.742,2.915 v 5.219 z"
   id="path2502" />

		<path
   d="m 237.25,545.463 c -0.705,0 -1.144,-0.533 -1.144,-1.207 h -0.031 c -0.455,0.8 -1.441,1.301 -2.554,1.301 -1.818,0 -2.727,-1.222 -2.727,-2.444 0,-1.019 0.658,-2.351 2.82,-2.476 l 2.414,-0.142 v -0.58 c 0,-0.392 -0.047,-0.877 -0.408,-1.206 -0.266,-0.251 -0.658,-0.407 -1.3,-0.407 -0.721,0 -1.175,0.203 -1.442,0.47 -0.25,0.251 -0.392,0.564 -0.392,0.956 h -1.301 c 0.016,-0.721 0.282,-1.238 0.689,-1.661 0.533,-0.564 1.473,-0.847 2.445,-0.847 1.536,0 2.413,0.658 2.789,1.521 0.157,0.36 0.235,0.768 0.235,1.223 v 3.839 c 0,0.423 0.172,0.533 0.438,0.533 0.141,0 0.345,-0.047 0.345,-0.047 v 0.987 c -0.28,0.14 -0.546,0.187 -0.876,0.187 z m -1.222,-3.934 -2.131,0.126 c -0.799,0.047 -1.739,0.423 -1.739,1.426 0,0.705 0.438,1.363 1.567,1.363 0.611,0 1.207,-0.204 1.63,-0.643 0.47,-0.485 0.674,-1.144 0.674,-1.802 v -0.47 z"
   id="path2504" />

		<path
   d="m 249.081,545.354 -0.094,-1.034 c -0.454,0.799 -1.473,1.237 -2.366,1.237 -0.971,0 -1.724,-0.329 -2.241,-0.861 -0.752,-0.769 -1.144,-1.975 -1.144,-3.291 0,-1.363 0.408,-2.617 1.207,-3.385 0.517,-0.486 1.254,-0.8 2.178,-0.8 0.862,0 1.881,0.408 2.304,1.129 v -4.31 h 1.332 v 11.314 h -1.176 z m -0.956,-6.489 c -0.313,-0.282 -0.705,-0.517 -1.285,-0.517 -1.771,0 -2.241,1.583 -2.241,3.04 0,1.457 0.47,3.04 2.241,3.04 0.58,0 0.971,-0.235 1.285,-0.518 0.658,-0.579 0.878,-1.535 0.878,-2.522 0,-0.987 -0.22,-1.943 -0.878,-2.523 z"
   id="path2506" />

		<path
   d="m 253.001,538.6 -0.407,-0.737 c 0.814,-0.36 1.003,-0.83 1.003,-1.724 h -0.972 v -1.833 h 1.912 v 1.833 c 0,1.16 -0.391,1.974 -1.536,2.461 z"
   id="path2508" />

		<path
   d="m 256.979,545.354 v -11.11 h 7.428 v 1.284 h -6.033 v 3.385 h 5.297 v 1.316 h -5.297 v 3.84 h 6.033 v 1.285 z"
   id="path2510" />

		<path
   d="m 271.847,544.664 c -0.611,0.627 -1.552,0.893 -2.586,0.893 -0.987,0 -1.896,-0.234 -2.569,-0.893 -0.486,-0.471 -0.769,-1.145 -0.769,-1.818 h 1.332 c 0.016,0.549 0.267,0.956 0.643,1.238 0.36,0.267 0.925,0.36 1.427,0.36 0.548,0 1.05,-0.094 1.457,-0.438 0.22,-0.173 0.392,-0.502 0.392,-0.862 0,-0.596 -0.423,-1.019 -1.238,-1.128 -0.345,-0.047 -1.237,-0.157 -1.786,-0.235 -1.191,-0.188 -1.943,-0.925 -1.943,-2.131 0,-0.611 0.298,-1.191 0.658,-1.552 0.518,-0.533 1.348,-0.878 2.335,-0.878 1.05,0 1.99,0.329 2.523,1.003 0.345,0.424 0.563,0.878 0.563,1.521 h -1.332 c -0.016,-0.407 -0.219,-0.783 -0.454,-0.987 -0.329,-0.298 -0.768,-0.423 -1.301,-0.423 -0.313,0 -0.549,0 -0.925,0.156 -0.501,0.204 -0.799,0.627 -0.799,1.065 0,0.658 0.407,0.94 1.065,1.034 0.438,0.063 1.065,0.126 1.912,0.267 1.128,0.188 2.021,1.003 2.021,2.194 10e-4,0.689 -0.25,1.222 -0.626,1.614 z"
   id="path2512" />

		<path
   d="m 280.4,544.773 c -0.518,0.485 -1.254,0.799 -2.179,0.799 -0.861,0 -1.88,-0.407 -2.304,-1.128 v 4.31 h -1.332 V 537.44 h 1.176 l 0.094,1.034 c 0.455,-0.799 1.474,-1.238 2.366,-1.238 0.972,0 1.724,0.329 2.241,0.862 0.752,0.768 1.144,1.975 1.144,3.291 0,1.363 -0.407,2.617 -1.206,3.384 z m -2.398,-6.409 c -0.58,0 -0.972,0.235 -1.285,0.517 -0.658,0.58 -0.878,1.536 -0.878,2.523 0,0.987 0.22,1.943 0.878,2.522 0.313,0.282 0.705,0.518 1.285,0.518 1.771,0 2.24,-1.583 2.24,-3.04 0,-1.457 -0.469,-3.04 -2.24,-3.04 z"
   id="path2514" />

		<path
   d="m 290.272,541.827 h -5.609 c 0,0.721 0.282,1.505 0.768,1.99 0.36,0.36 0.846,0.564 1.457,0.564 0.627,0 1.145,-0.173 1.474,-0.518 0.219,-0.219 0.36,-0.438 0.47,-0.861 h 1.301 c -0.109,0.783 -0.58,1.52 -1.223,1.959 -0.563,0.376 -1.269,0.595 -2.021,0.595 -1.112,0 -2.021,-0.47 -2.633,-1.19 -0.658,-0.769 -0.987,-1.818 -0.987,-2.946 0,-0.956 0.173,-1.802 0.611,-2.539 0.564,-0.955 1.614,-1.661 2.993,-1.661 1.019,0 1.834,0.393 2.413,1.019 0.643,0.706 1.02,1.725 1.003,2.79 z m -1.833,-2.758 c -0.329,-0.438 -0.862,-0.721 -1.567,-0.721 -1.441,0 -2.146,1.175 -2.178,2.335 h 4.23 c 0,-0.595 -0.172,-1.191 -0.485,-1.614 z"
   id="path2516" />

		<path
   d="m 295.951,538.662 c -0.627,0 -1.144,0.282 -1.505,0.627 -0.642,0.61 -0.721,1.708 -0.721,2.538 v 3.526 h -1.316 v -7.93 h 1.176 l 0.109,1.395 c 0.407,-0.972 1.363,-1.441 2.366,-1.441 0.204,0 0.424,0.016 0.627,0.047 v 1.301 c -0.235,-0.047 -0.501,-0.063 -0.736,-0.063 z"
   id="path2518" />

		<path
   d="m 304.227,545.463 c -0.706,0 -1.145,-0.533 -1.145,-1.207 h -0.031 c -0.454,0.8 -1.441,1.301 -2.555,1.301 -1.817,0 -2.726,-1.222 -2.726,-2.444 0,-1.019 0.658,-2.351 2.821,-2.476 l 2.413,-0.142 v -0.58 c 0,-0.392 -0.047,-0.877 -0.407,-1.206 -0.267,-0.251 -0.658,-0.407 -1.301,-0.407 -0.721,0 -1.176,0.203 -1.441,0.47 -0.251,0.251 -0.393,0.564 -0.393,0.956 h -1.3 c 0.017,-0.721 0.282,-1.238 0.69,-1.661 0.532,-0.564 1.472,-0.847 2.444,-0.847 1.535,0 2.413,0.658 2.789,1.521 0.157,0.36 0.235,0.768 0.235,1.223 v 3.839 c 0,0.423 0.172,0.533 0.438,0.533 0.142,0 0.345,-0.047 0.345,-0.047 v 0.987 c -0.282,0.14 -0.547,0.187 -0.876,0.187 z m -1.223,-3.934 -2.131,0.126 c -0.8,0.047 -1.74,0.423 -1.74,1.426 0,0.705 0.439,1.363 1.567,1.363 0.611,0 1.207,-0.204 1.63,-0.643 0.47,-0.485 0.674,-1.144 0.674,-1.802 z"
   id="path2520" />

		<path
   d="m 312.096,545.354 v -5.03 c 0,-1.191 -0.486,-1.896 -1.74,-1.896 -0.768,0 -1.379,0.502 -1.724,1.223 -0.267,0.579 -0.282,1.41 -0.282,2.021 v 3.683 h -1.332 v -7.93 h 1.16 l 0.109,1.191 c 0.407,-0.909 1.505,-1.396 2.397,-1.396 1.803,0 2.743,1.082 2.743,2.915 v 5.219 z"
   id="path2522" />

		<path
   d="m 318.647,545.463 c -1.708,0 -2.179,-1.081 -2.179,-2.146 v -4.749 h -1.535 v -1.144 h 1.535 v -2.021 l 1.332,-0.313 v 2.335 h 2.351 v 1.144 H 317.8 v 4.592 c 0,0.768 0.329,1.081 1.066,1.081 0.563,0 1.363,-0.141 1.363,-0.141 v 1.144 c -0.359,0.093 -0.845,0.218 -1.582,0.218 z"
   id="path2524" />

		<path
   d="m 327.377,544.633 c -0.579,0.563 -1.395,0.924 -2.397,0.924 -1.002,0 -1.817,-0.36 -2.397,-0.924 -0.862,-0.847 -1.128,-1.99 -1.128,-3.244 0,-1.254 0.266,-2.397 1.128,-3.244 0.58,-0.564 1.395,-0.925 2.397,-0.925 1.002,0 1.818,0.36 2.397,0.925 0.862,0.847 1.129,1.99 1.129,3.244 0,1.254 -0.267,2.397 -1.129,3.244 z m -0.972,-5.704 c -0.329,-0.329 -0.799,-0.564 -1.426,-0.564 -0.627,0 -1.097,0.235 -1.426,0.564 -0.564,0.579 -0.736,1.535 -0.736,2.46 0,0.925 0.172,1.881 0.736,2.46 0.329,0.329 0.799,0.564 1.426,0.564 0.627,0 1.097,-0.235 1.426,-0.564 0.564,-0.579 0.737,-1.535 0.737,-2.46 0,-0.925 -0.172,-1.881 -0.737,-2.46 z"
   id="path2526" />

		<path
   d="m 330.388,545.557 h -1.065 l 4.826,-11.518 h 1.065 z"
   id="path2528" />

		<path
   d="m 343.786,545.354 -3.322,-5.768 -2.257,2.633 v 3.135 h -1.395 v -11.11 h 1.395 v 5.923 l 5.093,-5.923 h 1.739 l -3.62,4.23 3.996,6.88 z"
   id="path2530" />

		<path
   d="m 352.81,545.463 c -0.705,0 -1.145,-0.533 -1.145,-1.207 h -0.031 c -0.454,0.8 -1.441,1.301 -2.555,1.301 -1.817,0 -2.727,-1.222 -2.727,-2.444 0,-1.019 0.658,-2.351 2.821,-2.476 l 2.413,-0.142 v -0.58 c 0,-0.392 -0.047,-0.877 -0.407,-1.206 -0.267,-0.251 -0.658,-0.407 -1.301,-0.407 -0.721,0 -1.176,0.203 -1.441,0.47 -0.251,0.251 -0.393,0.564 -0.393,0.956 h -1.301 c 0.017,-0.721 0.282,-1.238 0.69,-1.661 0.532,-0.564 1.473,-0.847 2.444,-0.847 1.535,0 2.413,0.658 2.789,1.521 0.157,0.36 0.235,0.768 0.235,1.223 v 3.839 c 0,0.423 0.172,0.533 0.438,0.533 0.142,0 0.345,-0.047 0.345,-0.047 v 0.987 c -0.28,0.14 -0.545,0.187 -0.874,0.187 z m -1.223,-3.934 -2.131,0.126 c -0.8,0.047 -1.74,0.423 -1.74,1.426 0,0.705 0.439,1.363 1.567,1.363 0.611,0 1.207,-0.204 1.63,-0.643 0.47,-0.485 0.674,-1.144 0.674,-1.802 z"
   id="path2532" />

		<path
   d="m 358.192,545.463 c -1.708,0 -2.179,-1.081 -2.179,-2.146 v -4.749 h -1.535 v -1.144 h 1.535 v -2.021 l 1.332,-0.313 v 2.335 h 2.351 v 1.144 h -2.351 v 4.592 c 0,0.768 0.329,1.081 1.066,1.081 0.563,0 1.363,-0.141 1.363,-0.141 v 1.144 c -0.359,0.093 -0.845,0.218 -1.582,0.218 z"
   id="path2534" />

		<path
   d="m 367.621,545.463 c -0.706,0 -1.145,-0.533 -1.145,-1.207 h -0.031 c -0.454,0.8 -1.441,1.301 -2.555,1.301 -1.817,0 -2.727,-1.222 -2.727,-2.444 0,-1.019 0.658,-2.351 2.821,-2.476 l 2.413,-0.142 v -0.58 c 0,-0.392 -0.047,-0.877 -0.407,-1.206 -0.267,-0.251 -0.658,-0.407 -1.301,-0.407 -0.721,0 -1.176,0.203 -1.441,0.47 -0.251,0.251 -0.393,0.564 -0.393,0.956 h -1.301 c 0.017,-0.721 0.282,-1.238 0.69,-1.661 0.532,-0.564 1.473,-0.847 2.444,-0.847 1.535,0 2.413,0.658 2.789,1.521 0.157,0.36 0.235,0.768 0.235,1.223 v 3.839 c 0,0.423 0.172,0.533 0.438,0.533 0.142,0 0.345,-0.047 0.345,-0.047 v 0.987 c -0.279,0.14 -0.545,0.187 -0.874,0.187 z m -1.223,-3.934 -2.131,0.126 c -0.8,0.047 -1.74,0.423 -1.74,1.426 0,0.705 0.439,1.363 1.567,1.363 0.611,0 1.207,-0.204 1.63,-0.643 0.47,-0.485 0.674,-1.144 0.674,-1.802 z"
   id="path2536" />

		<path
   d="m 371.993,545.447 c -1.159,0 -1.661,-0.689 -1.661,-1.943 v -9.465 h 1.332 v 9.387 c 0,0.533 0.173,0.814 0.721,0.814 0.439,0 0.549,-0.016 0.549,-0.016 v 1.129 c 0,0.001 -0.298,0.094 -0.941,0.094 z"
   id="path2538" />

		<path
   d="m 379.75,545.354 -0.109,-1.207 c -0.407,0.909 -1.426,1.395 -2.351,1.395 -1.802,0 -2.711,-1.081 -2.711,-2.914 v -5.203 h 1.332 v 5.015 c 0,1.191 0.438,1.896 1.692,1.896 0.533,0 0.972,-0.235 1.316,-0.596 0.501,-0.518 0.658,-1.379 0.658,-2.194 v -4.121 h 1.332 v 7.93 h -1.159 z"
   id="path2540" />

		<path
   d="m 388.613,545.354 v -5.03 c 0,-1.191 -0.486,-1.896 -1.74,-1.896 -0.768,0 -1.379,0.502 -1.724,1.223 -0.267,0.579 -0.282,1.41 -0.282,2.021 v 3.683 h -1.332 v -7.93 h 1.16 l 0.109,1.191 c 0.407,-0.909 1.505,-1.396 2.397,-1.396 1.803,0 2.743,1.082 2.743,2.915 v 5.219 z"
   id="path2542" />

		<path
   d="m 398.352,545.463 c -0.706,0 -1.145,-0.533 -1.145,-1.207 h -0.031 c -0.454,0.8 -1.441,1.301 -2.555,1.301 -1.817,0 -2.727,-1.222 -2.727,-2.444 0,-1.019 0.658,-2.351 2.821,-2.476 l 2.413,-0.142 v -0.58 c 0,-0.392 -0.047,-0.877 -0.407,-1.206 -0.267,-0.251 -0.658,-0.407 -1.301,-0.407 -0.721,0 -1.176,0.203 -1.441,0.47 -0.251,0.251 -0.393,0.564 -0.393,0.956 h -1.301 c 0.017,-0.721 0.282,-1.238 0.69,-1.661 0.532,-0.564 1.473,-0.847 2.444,-0.847 1.535,0 2.413,0.658 2.789,1.521 0.157,0.36 0.235,0.768 0.235,1.223 v 3.839 c 0,0.423 0.172,0.533 0.438,0.533 0.142,0 0.345,-0.047 0.345,-0.047 v 0.987 c -0.28,0.14 -0.545,0.187 -0.874,0.187 z m -1.223,-3.934 -2.131,0.126 c -0.8,0.047 -1.74,0.423 -1.74,1.426 0,0.705 0.439,1.363 1.567,1.363 0.611,0 1.207,-0.204 1.63,-0.643 0.47,-0.485 0.674,-1.144 0.674,-1.802 z"
   id="path2544" />

		<path
   d="m 405.057,545.354 v -11.11 h 7.428 v 1.284 h -6.033 v 3.385 h 5.297 v 1.316 h -5.297 v 3.84 h 6.033 v 1.285 z"
   id="path2546" />

		<path
   d="m 419.924,544.664 c -0.611,0.627 -1.552,0.893 -2.586,0.893 -0.987,0 -1.896,-0.234 -2.569,-0.893 -0.486,-0.471 -0.769,-1.145 -0.769,-1.818 h 1.332 c 0.016,0.549 0.267,0.956 0.643,1.238 0.36,0.267 0.925,0.36 1.427,0.36 0.548,0 1.05,-0.094 1.457,-0.438 0.22,-0.173 0.392,-0.502 0.392,-0.862 0,-0.596 -0.423,-1.019 -1.238,-1.128 -0.345,-0.047 -1.237,-0.157 -1.786,-0.235 -1.191,-0.188 -1.943,-0.925 -1.943,-2.131 0,-0.611 0.298,-1.191 0.658,-1.552 0.518,-0.533 1.348,-0.878 2.335,-0.878 1.05,0 1.99,0.329 2.523,1.003 0.345,0.424 0.563,0.878 0.563,1.521 h -1.332 c -0.016,-0.407 -0.219,-0.783 -0.454,-0.987 -0.329,-0.298 -0.768,-0.423 -1.301,-0.423 -0.313,0 -0.548,0 -0.925,0.156 -0.501,0.204 -0.799,0.627 -0.799,1.065 0,0.658 0.407,0.94 1.065,1.034 0.438,0.063 1.065,0.126 1.912,0.267 1.128,0.188 2.021,1.003 2.021,2.194 10e-4,0.689 -0.25,1.222 -0.626,1.614 z"
   id="path2548" />

		<path
   d="m 428.477,544.773 c -0.518,0.485 -1.254,0.799 -2.179,0.799 -0.861,0 -1.88,-0.407 -2.304,-1.128 v 4.31 h -1.332 V 537.44 h 1.176 l 0.094,1.034 c 0.455,-0.799 1.474,-1.238 2.366,-1.238 0.972,0 1.724,0.329 2.241,0.862 0.752,0.768 1.144,1.975 1.144,3.291 0,1.363 -0.408,2.617 -1.206,3.384 z m -2.398,-6.409 c -0.58,0 -0.972,0.235 -1.285,0.517 -0.658,0.58 -0.878,1.536 -0.878,2.523 0,0.987 0.22,1.943 0.878,2.522 0.313,0.282 0.705,0.518 1.285,0.518 1.771,0 2.24,-1.583 2.24,-3.04 0,-1.457 -0.469,-3.04 -2.24,-3.04 z"
   id="path2550" />

		<path
   d="m 438.349,541.827 h -5.609 c 0,0.721 0.281,1.505 0.768,1.99 0.36,0.36 0.846,0.564 1.457,0.564 0.627,0 1.145,-0.173 1.474,-0.518 0.219,-0.219 0.36,-0.438 0.47,-0.861 h 1.301 c -0.109,0.783 -0.58,1.52 -1.223,1.959 -0.563,0.376 -1.269,0.595 -2.021,0.595 -1.112,0 -2.021,-0.47 -2.633,-1.19 -0.658,-0.769 -0.987,-1.818 -0.987,-2.946 0,-0.956 0.173,-1.802 0.611,-2.539 0.564,-0.955 1.614,-1.661 2.993,-1.661 1.019,0 1.834,0.393 2.413,1.019 0.643,0.706 1.02,1.725 1.003,2.79 z m -1.833,-2.758 c -0.329,-0.438 -0.862,-0.721 -1.567,-0.721 -1.441,0 -2.146,1.175 -2.178,2.335 h 4.23 c 0,-0.595 -0.172,-1.191 -0.485,-1.614 z"
   id="path2552" />

		<path
   d="m 444.027,538.662 c -0.627,0 -1.144,0.282 -1.505,0.627 -0.642,0.61 -0.721,1.708 -0.721,2.538 v 3.526 h -1.316 v -7.93 h 1.176 l 0.109,1.395 c 0.407,-0.972 1.363,-1.441 2.366,-1.441 0.204,0 0.424,0.016 0.627,0.047 v 1.301 c -0.235,-0.047 -0.5,-0.063 -0.736,-0.063 z"
   id="path2554" />

		<path
   d="m 452.304,545.463 c -0.705,0 -1.145,-0.533 -1.145,-1.207 h -0.031 c -0.454,0.8 -1.441,1.301 -2.555,1.301 -1.817,0 -2.727,-1.222 -2.727,-2.444 0,-1.019 0.658,-2.351 2.821,-2.476 l 2.413,-0.142 v -0.58 c 0,-0.392 -0.047,-0.877 -0.407,-1.206 -0.267,-0.251 -0.658,-0.407 -1.301,-0.407 -0.721,0 -1.176,0.203 -1.441,0.47 -0.251,0.251 -0.393,0.564 -0.393,0.956 h -1.301 c 0.017,-0.721 0.282,-1.238 0.69,-1.661 0.532,-0.564 1.473,-0.847 2.444,-0.847 1.535,0 2.413,0.658 2.789,1.521 0.157,0.36 0.235,0.768 0.235,1.223 v 3.839 c 0,0.423 0.172,0.533 0.438,0.533 0.142,0 0.345,-0.047 0.345,-0.047 v 0.987 c -0.28,0.14 -0.545,0.187 -0.874,0.187 z m -1.223,-3.934 -2.131,0.126 c -0.8,0.047 -1.74,0.423 -1.74,1.426 0,0.705 0.439,1.363 1.567,1.363 0.611,0 1.207,-0.204 1.63,-0.643 0.47,-0.485 0.674,-1.144 0.674,-1.802 z"
   id="path2556" />

		<path
   d="m 460.173,545.354 v -5.03 c 0,-1.191 -0.486,-1.896 -1.74,-1.896 -0.768,0 -1.379,0.502 -1.724,1.223 -0.267,0.579 -0.282,1.41 -0.282,2.021 v 3.683 h -1.332 v -7.93 h 1.16 l 0.109,1.191 c 0.407,-0.909 1.505,-1.396 2.397,-1.396 1.803,0 2.743,1.082 2.743,2.915 v 5.219 z"
   id="path2558" />

		<path
   d="m 466.725,545.463 c -1.708,0 -2.179,-1.081 -2.179,-2.146 v -4.749 h -1.535 v -1.144 h 1.535 v -2.021 l 1.332,-0.313 v 2.335 h 2.351 v 1.144 h -2.351 v 4.592 c 0,0.768 0.329,1.081 1.066,1.081 0.563,0 1.363,-0.141 1.363,-0.141 v 1.144 c -0.36,0.093 -0.846,0.218 -1.582,0.218 z"
   id="path2560" />

		<path
   d="m 475.454,544.633 c -0.579,0.563 -1.395,0.924 -2.397,0.924 -1.002,0 -1.817,-0.36 -2.397,-0.924 -0.862,-0.847 -1.128,-1.99 -1.128,-3.244 0,-1.254 0.266,-2.397 1.128,-3.244 0.58,-0.564 1.395,-0.925 2.397,-0.925 1.002,0 1.818,0.36 2.397,0.925 0.862,0.847 1.129,1.99 1.129,3.244 0,1.254 -0.267,2.397 -1.129,3.244 z m -0.972,-5.704 c -0.329,-0.329 -0.799,-0.564 -1.426,-0.564 -0.627,0 -1.097,0.235 -1.426,0.564 -0.564,0.579 -0.736,1.535 -0.736,2.46 0,0.925 0.172,1.881 0.736,2.46 0.329,0.329 0.799,0.564 1.426,0.564 0.627,0 1.097,-0.235 1.426,-0.564 0.564,-0.579 0.737,-1.535 0.737,-2.46 0,-0.925 -0.172,-1.881 -0.737,-2.46 z"
   id="path2562" />

		<path
   d="m 478.419,541.247 v -1.237 h 4.654 v 1.237 z"
   id="path2564" />

		<path
   d="m 491.821,545.354 -0.908,-2.633 h -4.827 l -0.893,2.633 h -1.411 l 3.918,-11.11 h 1.63 l 3.934,11.11 z m -3.338,-9.716 -1.958,5.767 h 3.933 z"
   id="path2566" />

		<path
   d="m 500.147,544.664 c -0.611,0.627 -1.552,0.893 -2.586,0.893 -0.987,0 -1.896,-0.234 -2.569,-0.893 -0.486,-0.471 -0.769,-1.145 -0.769,-1.818 h 1.332 c 0.016,0.549 0.267,0.956 0.643,1.238 0.36,0.267 0.925,0.36 1.427,0.36 0.548,0 1.05,-0.094 1.457,-0.438 0.22,-0.173 0.392,-0.502 0.392,-0.862 0,-0.596 -0.423,-1.019 -1.238,-1.128 -0.345,-0.047 -1.237,-0.157 -1.786,-0.235 -1.191,-0.188 -1.943,-0.925 -1.943,-2.131 0,-0.611 0.298,-1.191 0.658,-1.552 0.518,-0.533 1.348,-0.878 2.335,-0.878 1.05,0 1.99,0.329 2.523,1.003 0.345,0.424 0.563,0.878 0.563,1.521 h -1.332 c -0.016,-0.407 -0.219,-0.783 -0.454,-0.987 -0.329,-0.298 -0.768,-0.423 -1.301,-0.423 -0.313,0 -0.549,0 -0.925,0.156 -0.501,0.204 -0.799,0.627 -0.799,1.065 0,0.658 0.407,0.94 1.065,1.034 0.438,0.063 1.065,0.126 1.912,0.267 1.128,0.188 2.021,1.003 2.021,2.194 10e-4,0.689 -0.25,1.222 -0.626,1.614 z"
   id="path2568" />

		<path
   d="m 508.312,544.633 c -0.579,0.563 -1.395,0.924 -2.397,0.924 -1.002,0 -1.817,-0.36 -2.397,-0.924 -0.862,-0.847 -1.128,-1.99 -1.128,-3.244 0,-1.254 0.266,-2.397 1.128,-3.244 0.58,-0.564 1.395,-0.925 2.397,-0.925 1.002,0 1.818,0.36 2.397,0.925 0.862,0.847 1.129,1.99 1.129,3.244 0,1.254 -0.266,2.397 -1.129,3.244 z m -0.971,-5.704 c -0.329,-0.329 -0.799,-0.564 -1.426,-0.564 -0.627,0 -1.097,0.235 -1.426,0.564 -0.564,0.579 -0.736,1.535 -0.736,2.46 0,0.925 0.172,1.881 0.736,2.46 0.329,0.329 0.799,0.564 1.426,0.564 0.627,0 1.097,-0.235 1.426,-0.564 0.564,-0.579 0.737,-1.535 0.737,-2.46 0,-0.925 -0.173,-1.881 -0.737,-2.46 z"
   id="path2570" />

		<path
   d="m 516.956,544.695 c -0.564,0.548 -1.316,0.861 -2.288,0.861 -1.426,0 -2.335,-0.658 -2.899,-1.488 -0.423,-0.627 -0.657,-1.489 -0.657,-2.68 0,-1.191 0.234,-2.053 0.657,-2.68 0.564,-0.831 1.458,-1.489 2.884,-1.489 0.94,0 1.708,0.313 2.257,0.847 0.532,0.517 0.877,1.175 0.94,2.037 h -1.348 c -0.063,-0.549 -0.267,-0.94 -0.564,-1.238 -0.313,-0.298 -0.768,-0.485 -1.285,-0.485 -0.611,0 -1.034,0.22 -1.379,0.517 -0.627,0.533 -0.799,1.521 -0.799,2.492 0,0.971 0.172,1.959 0.799,2.491 0.345,0.298 0.768,0.518 1.379,0.518 0.549,0 1.034,-0.204 1.348,-0.533 0.282,-0.298 0.471,-0.658 0.533,-1.175 h 1.348 c -0.064,0.845 -0.393,1.488 -0.926,2.005 z"
   id="path2572" />

		<path
   d="m 519.839,535.606 v -1.567 h 1.552 v 1.567 z m 0.094,9.748 v -7.93 h 1.363 v 7.93 z"
   id="path2574" />

		<path
   d="m 529.344,544.633 c -0.579,0.563 -1.395,0.924 -2.397,0.924 -1.002,0 -1.817,-0.36 -2.397,-0.924 -0.862,-0.847 -1.128,-1.99 -1.128,-3.244 0,-1.254 0.266,-2.397 1.128,-3.244 0.58,-0.564 1.395,-0.925 2.397,-0.925 1.002,0 1.818,0.36 2.397,0.925 0.862,0.847 1.129,1.99 1.129,3.244 0,1.254 -0.267,2.397 -1.129,3.244 z m -0.972,-5.704 c -0.329,-0.329 -0.799,-0.564 -1.426,-0.564 -0.627,0 -1.097,0.235 -1.426,0.564 -0.564,0.579 -0.736,1.535 -0.736,2.46 0,0.925 0.172,1.881 0.736,2.46 0.329,0.329 0.799,0.564 1.426,0.564 0.627,0 1.097,-0.235 1.426,-0.564 0.564,-0.579 0.737,-1.535 0.737,-2.46 0,-0.925 -0.172,-1.881 -0.737,-2.46 z"
   id="path2576" />

	</g>
    </g>
  </g>
</svg>
